<svg width="256" height="206" viewBox="0 0 256 206" fill="none" xmlns="http://www.w3.org/2000/svg">
<g clip-path="url(#clip0)">
<g opacity="0.5">
<path opacity="0.5" d="M242.498 51.2964H207.439V37.8997C207.439 34.1782 205.959 30.6092 203.324 27.9777C200.689 25.3462 197.115 23.8679 193.388 23.8679H32.8657C29.4849 23.8679 26.2426 25.209 23.852 27.5964C21.4614 29.9837 20.1184 33.2216 20.1184 36.5977V51.3043H14.8401C10.9079 51.3029 7.13608 52.8606 4.35341 55.635C1.57073 58.4095 0.00489658 62.1737 0 66.1005V132.517C0.00285098 136.252 1.41842 139.848 3.96325 142.585C6.50807 145.322 9.99427 146.997 13.7237 147.277V162.299H28.709V147.321H47.5791V162.426H62.5643V147.321H197.426V162.426H212.411V147.321H224.9V162.286H239.901V147.321H242.601C244.36 147.322 246.103 146.976 247.728 146.304C249.354 145.632 250.831 144.646 252.075 143.404C253.32 142.162 254.307 140.687 254.98 139.063C255.653 137.44 256 135.7 256 133.943V64.7827C256 63.0118 255.651 61.2581 254.973 59.6219C254.295 57.9857 253.3 56.499 252.046 55.2466C250.792 53.9943 249.304 53.0008 247.666 52.323C246.027 51.6453 244.271 51.2964 242.498 51.2964ZM204.8 109.909V121.132H148.934C149.539 120.05 149.856 118.831 149.855 117.592V109.909H204.8Z" fill="url(#paint0_linear)"/>
</g>
<path d="M32.4064 141.708H17.978V159.719H32.4064V141.708Z" fill="#FF93B5"/>
<path d="M209.297 141.842H194.869V159.854H209.297V141.842Z" fill="#FF93B5"/>
<path d="M235.75 141.708H221.321V159.719H235.75V141.708Z" fill="#FF93B5"/>
<path d="M65.0055 141.842H50.5771V159.854H65.0055V141.842Z" fill="#FF93B5"/>
<path opacity="0.3" d="M32.4064 141.708H17.978V159.719H32.4064V141.708Z" fill="black"/>
<path opacity="0.3" d="M209.297 141.842H194.869V159.854H209.297V141.842Z" fill="black"/>
<path opacity="0.3" d="M235.75 141.708H221.321V159.719H235.75V141.708Z" fill="black"/>
<path opacity="0.3" d="M65.0055 141.842H50.5771V159.854H65.0055V141.842Z" fill="black"/>
<path d="M201.95 52.8488H238.249C241.697 52.8488 245.004 54.2166 247.442 56.6514C249.88 59.0861 251.249 62.3884 251.249 65.8316V132.43C251.249 135.846 249.891 139.122 247.472 141.538C245.053 143.953 241.773 145.31 238.352 145.31H201.95V52.8488Z" fill="#FF93B5"/>
<path opacity="0.3" d="M201.95 52.8488H238.249C241.697 52.8488 245.004 54.2166 247.442 56.6514C249.88 59.0861 251.249 62.3884 251.249 65.8316V132.43C251.249 135.846 249.891 139.122 247.472 141.538C245.053 143.953 241.773 145.31 238.352 145.31H201.95V52.8488Z" fill="black"/>
<path d="M36.3969 26.4323H105.889V109.287H24.1221V38.6878C24.1228 35.4372 25.4163 32.32 27.7182 30.0217C30.0201 27.7234 33.1419 26.4323 36.3969 26.4323Z" fill="#FF93B5"/>
<path opacity="0.3" d="M36.7928 26.4323H105.889V109.287H24.1221V39.0831C24.1221 37.4216 24.4498 35.7763 25.0866 34.2413C25.7234 32.7062 26.6568 31.3115 27.8334 30.1367C29.01 28.9619 30.4068 28.0301 31.9441 27.3945C33.4814 26.7589 35.1289 26.432 36.7928 26.4323Z" fill="black"/>
<path d="M55.2115 26.4323H122.59V109.287H40.8228V40.7989C40.8228 36.9886 42.3384 33.3344 45.0364 30.6402C47.7343 27.9459 51.3935 26.4323 55.2089 26.4323H55.2115Z" fill="#FF93B5"/>
<path d="M122.194 26.4323H190.958C194.546 26.4323 197.988 27.856 200.525 30.3901C203.063 32.9242 204.489 36.3612 204.489 39.945V109.287H122.194V26.4323Z" fill="#FF93B5"/>
<path d="M224.797 52.8488H238.257C241.703 52.8509 245.008 54.2196 247.444 56.6542C249.881 59.0887 251.249 62.3897 251.249 65.8316V132.43C251.249 135.846 249.891 139.122 247.472 141.538C245.053 143.953 241.772 145.31 238.352 145.31H224.797V52.8488Z" fill="#FF93B5"/>
<path d="M224.794 120.093H58.8589V145.31H224.794V120.093Z" fill="#FF93B5"/>
<path d="M96.9873 56.0994L78.8559 61.377C70.8726 63.7008 66.2872 72.0474 68.6141 80.0199L74.6205 100.599C76.9474 108.571 85.3054 113.15 93.2887 110.827L111.42 105.549C119.403 103.225 123.989 94.8785 121.662 86.9061L115.656 66.3272C113.329 58.3548 104.971 53.7756 96.9873 56.0994Z" fill="url(#paint1_linear)"/>
<path d="M95.9883 58.5576L79.0807 63.4791C71.6362 65.646 67.3602 73.4294 69.5301 80.8638L75.131 100.054C77.3009 107.488 85.0949 111.758 92.5394 109.591L109.447 104.67C116.892 102.503 121.168 94.7194 118.998 87.285L113.397 68.0952C111.227 60.6608 103.433 56.3907 95.9883 58.5576Z" fill="#F55F44"/>
<path opacity="0.1" d="M95.9883 58.5576L79.0807 63.4791C71.6362 65.646 67.3602 73.4294 69.5301 80.8638L75.131 100.054C77.3009 107.488 85.0949 111.758 92.5394 109.591L109.447 104.67C116.892 102.503 121.168 94.7194 118.998 87.285L113.397 68.0952C111.227 60.6608 103.433 56.3907 95.9883 58.5576Z" fill="black"/>
<path d="M96.8609 57.9453L79.9532 62.8668C72.5087 65.0337 68.2328 72.8171 70.4027 80.2515L76.0036 99.4413C78.1735 106.876 85.9675 111.146 93.412 108.979L110.32 104.057C117.764 101.89 122.04 94.1071 119.87 86.6727L114.269 67.4829C112.099 60.0485 104.305 55.7784 96.8609 57.9453Z" fill="#F55F44"/>
<path d="M93.2446 74.5126C94.8743 73.3679 95.2663 71.1205 94.12 69.493C92.9737 67.8654 90.7233 67.474 89.0935 68.6187C87.4638 69.7634 87.0718 72.0108 88.2181 73.6383C89.3644 75.2659 91.6148 75.6573 93.2446 74.5126Z" fill="url(#paint2_linear)"/>
<path d="M110.505 84.4087C112.135 83.264 112.527 81.0166 111.381 79.3891C110.234 77.7615 107.984 77.3701 106.354 78.5148C104.725 79.6595 104.333 81.9069 105.479 83.5345C106.625 85.162 108.876 85.5534 110.505 84.4087Z" fill="url(#paint3_linear)"/>
<path d="M83.7325 94.4018C85.3622 93.2571 85.7542 91.0098 84.6079 89.3822C83.4616 87.7546 81.2112 87.3632 79.5815 88.5079C77.9517 89.6527 77.5597 91.9 78.706 93.5276C79.8523 95.1551 82.1027 95.5465 83.7325 94.4018Z" fill="url(#paint4_linear)"/>
<path d="M100.008 104.991C101.638 103.846 102.03 101.599 100.883 99.9712C99.737 98.3436 97.4866 97.9522 95.8568 99.0969C94.2271 100.242 93.8351 102.489 94.9814 104.117C96.1277 105.744 98.3781 106.136 100.008 104.991Z" fill="url(#paint5_linear)"/>
<path d="M92.5523 73.5296C93.6384 72.7667 93.8996 71.269 93.1357 70.1844C92.3718 69.0997 90.872 68.8389 89.7859 69.6017C88.6998 70.3646 88.4386 71.8623 89.2025 72.9469C89.9664 74.0316 91.4661 74.2924 92.5523 73.5296Z" fill="#F99F8F"/>
<path d="M109.813 83.4257C110.899 82.6628 111.16 81.1651 110.396 80.0805C109.632 78.9958 108.133 78.735 107.047 79.4979C105.96 80.2607 105.699 81.7584 106.463 82.8431C107.227 83.9277 108.727 84.1886 109.813 83.4257Z" fill="#F99F8F"/>
<path d="M83.0402 93.4187C84.1263 92.6559 84.3875 91.1582 83.6236 90.0735C82.8597 88.9889 81.3599 88.728 80.2738 89.4909C79.1877 90.2538 78.9265 91.7515 79.6904 92.8361C80.4543 93.9207 81.954 94.1816 83.0402 93.4187Z" fill="#F99F8F"/>
<path d="M99.3154 104.008C100.402 103.245 100.663 101.747 99.8989 100.663C99.135 99.578 97.6352 99.3171 96.5491 100.08C95.463 100.843 95.2018 102.341 95.9657 103.425C96.7296 104.51 98.2293 104.771 99.3154 104.008Z" fill="#F99F8F"/>
<path d="M19.0363 52.8488H72.0838V145.31H19.0363C15.248 145.31 11.6147 143.808 8.93565 141.133C6.25661 138.458 4.75119 134.83 4.75049 131.047V67.1152C4.75049 63.3315 6.2556 59.7028 8.93472 57.0273C11.6138 54.3518 15.2475 52.8488 19.0363 52.8488Z" fill="#FF93B5"/>
<path opacity="0.3" d="M19.1366 52.8488H58.7744C60.5234 52.8488 62.2553 53.193 63.8711 53.8617C65.4869 54.5304 66.9549 55.5106 68.1911 56.7462C69.4274 57.9817 70.4077 59.4485 71.0761 61.0626C71.7445 62.6767 72.0878 64.4065 72.0864 66.1532V132.016C72.0864 135.542 70.6839 138.924 68.1874 141.417C65.6909 143.91 62.305 145.31 58.7744 145.31H19.1366C15.3212 145.31 11.662 143.797 8.96409 141.103C6.26617 138.408 4.75049 134.754 4.75049 130.944V67.2074C4.75259 63.3985 6.26919 59.7464 8.96689 57.0538C11.6646 54.3613 15.3226 52.8488 19.1366 52.8488Z" fill="black"/>
<path opacity="0.1" d="M45.7659 52.8488H68.9352C70.1251 52.8488 71.2663 53.3208 72.1077 54.1611C72.9491 55.0013 73.4218 56.1409 73.4218 57.3292V140.83C73.4218 142.018 72.9491 143.158 72.1077 143.998C71.2663 144.838 70.1251 145.31 68.9352 145.31H45.7659V52.8488Z" fill="black"/>
<path d="M44.4305 52.8488H67.5999C68.7898 52.8488 69.931 53.3208 70.7724 54.1611C71.6138 55.0013 72.0865 56.1409 72.0865 57.3292V140.83C72.0865 142.018 71.6138 143.158 70.7724 143.998C69.931 144.838 68.7898 145.31 67.5999 145.31H44.4305V52.8488Z" fill="#FF93B5"/>
<path d="M149.042 100.882H66.0745V123.699H149.042V100.882Z" fill="#FF93B5"/>
<path d="M232.145 101.014H149.177V123.83H232.145V101.014Z" fill="#FF93B5"/>
<path opacity="0.15" d="M142.022 100.882H73.0947C69.2175 100.882 66.0745 104.021 66.0745 107.893V116.688C66.0745 120.56 69.2175 123.699 73.0947 123.699H142.022C145.899 123.699 149.042 120.56 149.042 116.688V107.893C149.042 104.021 145.899 100.882 142.022 100.882Z" fill="white"/>
<path d="M158.728 58.9185C161.384 58.9185 163.537 56.7686 163.537 54.1165C163.537 51.4644 161.384 49.3145 158.728 49.3145C156.072 49.3145 153.919 51.4644 153.919 54.1165C153.919 56.7686 156.072 58.9185 158.728 58.9185Z" fill="#FF93B5"/>
<path opacity="0.3" d="M158.728 58.9185C161.384 58.9185 163.537 56.7686 163.537 54.1165C163.537 51.4644 161.384 49.3145 158.728 49.3145C156.072 49.3145 153.919 51.4644 153.919 54.1165C153.919 56.7686 156.072 58.9185 158.728 58.9185Z" fill="black"/>
<path d="M84.1792 58.9185C86.8349 58.9185 88.9878 56.7686 88.9878 54.1165C88.9878 51.4644 86.8349 49.3145 84.1792 49.3145C81.5235 49.3145 79.3706 51.4644 79.3706 54.1165C79.3706 56.7686 81.5235 58.9185 84.1792 58.9185Z" fill="#FF93B5"/>
<path opacity="0.3" d="M84.1792 58.9185C86.8349 58.9185 88.9878 56.7686 88.9878 54.1165C88.9878 51.4644 86.8349 49.3145 84.1792 49.3145C81.5235 49.3145 79.3706 51.4644 79.3706 54.1165C79.3706 56.7686 81.5235 58.9185 84.1792 58.9185Z" fill="black"/>
<path d="M81.7722 28.7648C82.4368 28.7648 82.9757 27.9589 82.9757 26.9647C82.9757 25.9705 82.4368 25.1646 81.7722 25.1646C81.1075 25.1646 80.5687 25.9705 80.5687 26.9647C80.5687 27.9589 81.1075 28.7648 81.7722 28.7648Z" fill="#FDC97B"/>
<path opacity="0.15" d="M225.124 101.014H156.197C152.32 101.014 149.177 104.153 149.177 108.025V116.82C149.177 120.692 152.32 123.83 156.197 123.83H225.124C229.001 123.83 232.145 120.692 232.145 116.82V108.025C232.145 104.153 229.001 101.014 225.124 101.014Z" fill="white"/>
<g opacity="0.5">
<path opacity="0.5" d="M177.469 54.8228C176.917 51.7945 176.352 48.732 175.094 45.9146C173.715 42.8195 171.555 40.135 168.825 38.1238C168.42 37.8178 167.918 37.6681 167.411 37.7021C166.619 37.7706 166.376 38.2555 166.252 38.7563C166.236 38.8169 166.223 38.8749 166.213 38.9355C165.901 40.4721 166.11 41.9902 166.561 43.4872C167.123 45.3558 168.065 47.177 168.849 48.985C170.261 52.2247 171.197 55.6513 171.628 59.1584C171.686 59.6222 171.731 60.0993 171.742 60.5763C171.749 60.8602 171.742 61.1444 171.721 61.4276C171.685 61.983 171.559 62.5288 171.346 63.0432C171.309 63.1276 171.269 63.2154 171.227 63.3068C171.185 63.3981 171.139 63.479 171.09 63.5492C170.61 64.3399 169.86 64.9039 169.126 65.46C168.393 66.0162 167.561 66.6092 166.685 66.9096H166.714C166.307 67.0566 165.875 67.1271 165.442 67.1178C164.088 67.0757 162.645 65.9872 161.283 66.2428L161.13 66.2771C159.736 66.654 158.667 68.8415 158.657 70.2305C158.657 70.3412 158.657 70.4483 158.657 70.552C158.657 70.5889 158.657 70.6258 158.67 70.6627C158.683 70.6996 158.686 70.8024 158.696 70.8683C158.707 70.9342 158.712 70.95 158.723 70.9895C158.733 71.029 158.746 71.1081 158.762 71.1661C158.778 71.2241 158.786 71.2478 158.799 71.2873C158.812 71.3269 158.834 71.3954 158.852 71.4481C158.871 71.5008 158.884 71.5272 158.9 71.5641C158.915 71.601 158.942 71.6642 158.966 71.7117L159.024 71.8223C159.05 71.8671 159.074 71.9146 159.103 71.9594L159.171 72.0648L159.261 72.1913L159.338 72.2888L159.441 72.4048L159.525 72.4944L159.639 72.6025L159.731 72.6842L159.855 72.7843L159.953 72.8608L160.087 72.953L160.187 73.0215L160.335 73.1085L160.438 73.1665L160.604 73.2482L160.702 73.2956C160.781 73.3325 160.863 73.3668 160.945 73.3984L161.064 73.4432L161.254 73.5118L161.391 73.5539L161.547 73.6014L161.7 73.6409L161.848 73.6778L162.011 73.7121L162.154 73.7411L162.325 73.77L162.462 73.7911L162.639 73.8148L162.771 73.8307L162.956 73.8465H163.085H163.275H163.397H163.595H164.009H164.225H164.302L164.534 73.828H164.579C165.238 73.7709 165.886 73.6282 166.508 73.4037C168.48 72.6578 170.153 71.2952 171.702 69.8641C174.774 67.0309 177.677 63.515 177.923 59.3455C178.018 57.8406 177.741 56.3225 177.469 54.8228Z" fill="url(#paint6_linear)"/>
</g>
<path opacity="0.1" d="M164.476 53.8213H139.597V61.0138H164.476V53.8213Z" fill="black"/>
<path d="M164.476 53.8213H139.597V60.3602H164.476V53.8213Z" fill="#FF93B5"/>
<path d="M154.001 54.6937C156.17 54.6937 157.928 52.9378 157.928 50.7719C157.928 48.606 156.17 46.8502 154.001 46.8502C151.832 46.8502 150.074 48.606 150.074 50.7719C150.074 52.9378 151.832 54.6937 154.001 54.6937Z" fill="#FF93B5"/>
<path d="M146.596 56.8074L146.548 56.76C146.637 56.6927 146.709 56.6056 146.759 56.5057C146.809 56.4058 146.835 56.2957 146.835 56.1841C146.835 56.0725 146.809 55.9625 146.759 55.8625C146.709 55.7626 146.637 55.6756 146.548 55.6083L146.59 55.5555C146.686 55.6295 146.763 55.7242 146.816 55.8324C146.869 55.9407 146.897 56.0596 146.897 56.1802C146.897 56.3007 146.869 56.4197 146.816 56.5279C146.763 56.6362 146.686 56.7309 146.59 56.8048L146.596 56.8074Z" fill="#4D8AF0"/>
<path opacity="0.1" d="M146.596 56.8074L146.548 56.76C146.637 56.6927 146.709 56.6056 146.759 56.5057C146.809 56.4058 146.835 56.2957 146.835 56.1841C146.835 56.0725 146.809 55.9625 146.759 55.8625C146.709 55.7626 146.637 55.6756 146.548 55.6083L146.59 55.5555C146.686 55.6295 146.763 55.7242 146.816 55.8324C146.869 55.9407 146.897 56.0596 146.897 56.1802C146.897 56.3007 146.869 56.4197 146.816 56.5279C146.763 56.6362 146.686 56.7309 146.59 56.8048L146.596 56.8074Z" fill="black"/>
<path d="M146.548 56.8074C146.453 56.7335 146.375 56.6388 146.322 56.5306C146.269 56.4223 146.242 56.3034 146.242 56.1828C146.242 56.0623 146.269 55.9433 146.322 55.835C146.375 55.7268 146.453 55.6321 146.548 55.5582L146.59 55.6109C146.501 55.6782 146.429 55.7653 146.379 55.8652C146.329 55.9651 146.303 56.0752 146.303 56.1868C146.303 56.2984 146.329 56.4084 146.379 56.5083C146.429 56.6083 146.501 56.6953 146.59 56.7626L146.548 56.8074Z" fill="#4D8AF0"/>
<path d="M166.667 77.9079C168.469 77.2253 169.997 75.9786 171.417 74.6714C174.225 72.0832 176.875 68.8731 177.102 65.0594C177.184 63.6678 176.933 62.2815 176.682 60.9084C176.178 58.141 175.663 55.342 174.521 52.7697C173.261 49.9426 171.287 47.4907 168.794 45.6536C168.422 45.3732 167.962 45.2365 167.498 45.2688C166.706 45.34 166.506 45.8829 166.4 46.4021C165.759 49.5648 167.519 52.6326 168.807 55.5845C170.097 58.5448 170.952 61.6757 171.346 64.8802C171.512 66.2401 171.573 67.7108 170.855 68.881C170.417 69.5979 169.731 70.1197 169.06 70.6258C168.057 71.3822 166.949 72.1755 165.693 72.1386C164.436 72.1017 163.032 71.0237 161.734 71.3716C160.435 71.7195 159.483 73.7147 159.475 74.9929C159.459 78.4561 164.254 78.8198 166.667 77.9079Z" fill="#FFD180"/>
<g opacity="0.1">
<path opacity="0.1" d="M170.85 68.881C170.412 69.5979 169.725 70.1197 169.055 70.6258C168.384 71.1786 167.631 71.6233 166.822 71.9436C167.962 71.8671 168.984 71.1529 169.91 70.4439C170.581 69.9379 171.267 69.4134 171.705 68.6992C172.42 67.5316 172.362 66.0636 172.196 64.6983C171.802 61.4938 170.947 58.3629 169.657 55.4026C168.369 52.4481 166.606 49.3777 167.25 46.2203C167.268 46.0336 167.324 45.8526 167.415 45.6884C167.505 45.5243 167.629 45.3806 167.778 45.2662C167.68 45.2579 167.582 45.2579 167.485 45.2662C166.693 45.3373 166.492 45.8803 166.387 46.3995C165.746 49.5622 167.506 52.63 168.794 55.5819C170.084 58.5421 170.939 61.673 171.333 64.8776C171.507 66.2402 171.568 67.7108 170.85 68.881Z" fill="black"/>
<path opacity="0.1" d="M160.335 74.819C160.335 73.6382 161.177 71.8434 162.309 71.3058C162.116 71.301 161.923 71.3231 161.737 71.3716C160.462 71.7169 159.485 73.7147 159.477 74.9929C159.462 78.2242 163.629 78.7513 166.149 78.0739C163.645 78.4376 160.319 77.697 160.335 74.819Z" fill="black"/>
</g>
<g opacity="0.5">
<path opacity="0.5" d="M141.953 38.7932C141.953 38.7932 149.142 37.3568 152.737 38.7932C152.737 38.7932 154.893 33.7671 157.049 33.7671C159.206 33.7671 159.924 41.6738 159.924 41.6738L162.798 53.1597C162.798 53.1597 176.455 77.5679 162.798 90.4875C149.14 103.407 127.578 89.0432 127.578 79.7106C127.578 70.378 131.89 50.9985 131.89 50.9985C131.89 50.9985 136.203 35.2061 137.641 33.7697C139.079 32.3333 141.953 38.7932 141.953 38.7932Z" fill="url(#paint7_linear)"/>
</g>
<path d="M142.196 39.7921C142.196 39.7921 149.106 38.411 152.56 39.7921C152.56 39.7921 154.632 34.9611 156.706 34.9611C158.781 34.9611 159.47 42.5516 159.47 42.5516L162.233 53.592C162.233 53.592 175.363 77.0487 162.233 89.4755C149.103 101.902 128.372 88.0945 128.372 79.1256C128.372 70.1567 132.518 51.5231 132.518 51.5231C132.518 51.5231 136.664 36.3421 138.047 34.9611C139.43 33.58 142.196 39.7921 142.196 39.7921Z" fill="#FFD180"/>
<g opacity="0.1">
<path opacity="0.1" d="M167.06 66.4905C166 62.0053 164.375 57.6722 162.225 53.5946L162.66 55.3394C164.532 58.8838 166.008 62.6234 167.06 66.4905Z" fill="white"/>
<path opacity="0.1" d="M129.615 77.2674C129.615 68.3065 132.959 53.2678 132.959 53.2678C132.959 53.2678 137.105 38.0868 138.488 36.7058C139.871 35.3247 142.634 41.5368 142.634 41.5368C142.634 41.5368 149.544 40.1558 152.998 41.5368C152.998 41.5368 155.073 36.7058 157.144 36.7058C157.936 36.7058 158.546 37.8496 158.973 39.2491C158.551 37.2013 157.833 34.961 156.709 34.961C154.637 34.961 152.563 39.7921 152.563 39.7921C149.108 38.411 142.199 39.7921 142.199 39.7921C142.199 39.7921 139.436 33.5826 138.053 34.961C136.67 36.3394 132.524 51.5231 132.524 51.5231C132.524 51.5231 129.18 66.5459 129.18 75.5227C129.177 76.3344 129.615 77.5257 129.615 77.2674Z" fill="white"/>
</g>
<path d="M155.672 53.2494C156.436 53.2494 157.055 52.6311 157.055 51.8684C157.055 51.1056 156.436 50.4873 155.672 50.4873C154.908 50.4873 154.289 51.1056 154.289 51.8684C154.289 52.6311 154.908 53.2494 155.672 53.2494Z" fill="#58555D"/>
<path d="M139.779 53.2494C140.542 53.2494 141.162 52.6311 141.162 51.8684C141.162 51.1056 140.542 50.4873 139.779 50.4873C139.015 50.4873 138.396 51.1056 138.396 51.8684C138.396 52.6311 139.015 53.2494 139.779 53.2494Z" fill="#58555D"/>
<path d="M148.071 54.6304C149.215 54.6304 150.143 54.0121 150.143 53.2494C150.143 52.4867 149.215 51.8683 148.071 51.8683C146.927 51.8683 145.999 52.4867 145.999 53.2494C145.999 54.0121 146.927 54.6304 148.071 54.6304Z" fill="#58555D"/>
<path d="M165.962 50.14L159.743 51.5192L159.893 52.1933L166.112 50.8141L165.962 50.14Z" fill="#FFD180"/>
<path d="M166.663 52.9012L159.752 54.2765L159.887 54.9537L166.798 53.5784L166.663 52.9012Z" fill="#FFD180"/>
<path d="M128.157 48.0956L127.9 48.7368L134.81 51.4969L135.067 50.8558L128.157 48.0956Z" fill="#FFD180"/>
<path d="M126.019 51.5333L125.914 52.2158L134.898 53.5966L135.003 52.9141L126.019 51.5333Z" fill="#FFD180"/>
<path opacity="0.1" d="M146.347 62.0785C144.539 62.0802 142.733 61.9267 140.95 61.62C137.523 61.0304 134.225 59.8468 131.207 58.1225L131.447 57.0077C134.5 58.6588 137.796 59.8153 141.212 60.4339C146.186 61.2852 154.743 61.0296 163.439 56.2381L164.019 57.2923C157.706 60.7766 151.061 62.0785 146.347 62.0785Z" fill="black"/>
<path d="M163.439 55.9825C154.73 60.774 146.184 61.0296 141.212 60.1783C137.796 59.5597 134.5 58.4032 131.447 56.7521L130.808 57.7694C133.972 59.5058 137.397 60.7173 140.95 61.3564C142.734 61.6643 144.54 61.8186 146.35 61.8177C151.064 61.8177 157.699 60.5183 164.033 57.0394L163.439 55.9825ZM146.572 61.7228C146.545 61.7228 146.519 61.7149 146.497 61.7001C146.475 61.6854 146.458 61.6644 146.448 61.6398C146.437 61.6153 146.435 61.5882 146.44 61.5622C146.445 61.5361 146.458 61.5121 146.477 61.4933C146.496 61.4745 146.52 61.4617 146.546 61.4565C146.572 61.4514 146.599 61.454 146.623 61.4642C146.648 61.4744 146.669 61.4916 146.684 61.5137C146.699 61.5358 146.706 61.5618 146.706 61.5884C146.706 61.6236 146.691 61.6571 146.666 61.6817C146.641 61.7064 146.607 61.7202 146.572 61.7202V61.7228Z" fill="#F55F44"/>
<path opacity="0.1" d="M145.234 63.5887C145.234 63.9424 145.374 64.2816 145.625 64.5317C145.875 64.7819 146.215 64.9224 146.569 64.9224C146.923 64.9224 147.263 64.7819 147.513 64.5317C147.764 64.2816 147.905 63.9424 147.905 63.5887C147.905 63.235 147.764 62.8958 147.513 62.6457C147.263 62.3956 146.923 62.2551 146.569 62.2551C146.215 62.2551 145.875 62.3956 145.625 62.6457C145.374 62.8958 145.234 63.235 145.234 63.5887ZM146.569 62.9219C146.525 62.9219 146.482 62.9089 146.446 62.8846C146.41 62.8603 146.381 62.8257 146.364 62.7853C146.348 62.7448 146.343 62.7003 146.352 62.6574C146.36 62.6144 146.381 62.575 146.412 62.544C146.443 62.513 146.483 62.492 146.526 62.4834C146.569 62.4749 146.614 62.4792 146.654 62.496C146.695 62.5128 146.729 62.5411 146.754 62.5775C146.778 62.614 146.791 62.6568 146.791 62.7005C146.791 62.7588 146.768 62.8147 146.727 62.8562C146.686 62.8976 146.63 62.9212 146.572 62.9219H146.569Z" fill="url(#paint8_linear)"/>
<path d="M145.368 63.5887C145.368 63.9075 145.495 64.2132 145.721 64.4386C145.947 64.6639 146.253 64.7906 146.572 64.7906C146.891 64.7906 147.197 64.6639 147.423 64.4386C147.649 64.2132 147.775 63.9075 147.775 63.5887C147.775 63.27 147.649 62.9643 147.423 62.7389C147.197 62.5135 146.891 62.3869 146.572 62.3869C146.253 62.3869 145.947 62.5135 145.721 62.7389C145.495 62.9643 145.368 63.27 145.368 63.5887ZM146.572 62.9878C146.532 62.9878 146.493 62.9761 146.46 62.9541C146.427 62.9321 146.402 62.9008 146.387 62.8642C146.371 62.8276 146.367 62.7873 146.375 62.7484C146.383 62.7096 146.402 62.6739 146.43 62.6459C146.458 62.6179 146.494 62.5988 146.533 62.5911C146.572 62.5833 146.612 62.5873 146.649 62.6025C146.685 62.6176 146.717 62.6433 146.739 62.6762C146.761 62.7092 146.772 62.7479 146.772 62.7875C146.772 62.8406 146.751 62.8916 146.714 62.9292C146.676 62.9667 146.625 62.9878 146.572 62.9878Z" fill="#4D8AF0"/>
<path d="M161.668 56.3831C143.276 67.189 132.677 57.1738 132.677 57.1738L161.668 56.3831Z" fill="#FFD180"/>
<path d="M212.124 109.472C210.997 106.28 198.928 115.27 198.928 115.27L196.138 115.104L190.77 110.138L194.518 106.396L163.048 79.4471C162.208 78.7285 161.227 78.1932 160.168 77.8755C159.108 77.5578 157.994 77.4647 156.896 77.6022L130.734 80.8598C130.621 79.3627 129.697 77.5837 128.391 75.7678C125.707 71.3717 120.056 66.4088 117.971 64.6456L114.773 43.1709L117.483 39.1094C116.981 38.9725 116.488 38.807 116.005 38.614L116.578 37.7547L116.367 37.6968L116.631 37.3858H116.599L123.35 29.5844C123.851 29.0055 124.108 28.2549 124.067 27.4906C124.026 26.7263 123.689 26.0078 123.128 25.4861L108.019 14.0213C108.477 12.9293 108.697 11.7522 108.663 10.5687C108.782 8.29153 107.76 5.98013 104.337 4.26963C102.219 3.26114 100.001 2.47844 97.7182 1.9345C93.9572 0.96809 90.0055 1.02634 86.2747 2.10318C86.214 2.02675 86.148 1.95032 86.0794 1.87125C81.4292 -3.43682 75.3301 4.19056 75.0925 4.50683L51.2555 30.9839C50.6074 32.0117 50.3702 33.2455 50.5913 34.4399C50.8123 35.6343 51.4753 36.7019 52.4484 37.4306L65.0663 46.8792L65.0267 46.9608L65.7393 47.488C65.2115 48.5422 64.4751 49.2538 63.5118 49.3619L65.4437 50.3265C65.1385 50.5397 64.7846 50.673 64.4144 50.7139L73.2609 55.1312C73.2609 59.7224 73.736 80.7412 81.2101 91.0595C81.9759 92.3293 82.8873 93.5057 83.9258 94.5648C83.9258 94.5648 84.5619 94.2196 85.7231 93.6608L87.0585 96.3307C88.5262 99.2619 90.8802 101.658 93.7872 103.178C96.6941 104.699 100.007 105.268 103.255 104.804L144.783 98.8793L144.342 100.197L144.579 100.163L131.12 140.487L133.342 141.228L133.3 141.307L133.614 141.441L130.813 146.713L122.001 153.481C122.001 153.481 147.757 166.34 150.467 164.31C153.178 162.281 140.966 153.481 140.966 153.481L140.288 150.774L143.252 144.525L145.735 145.353L165.693 105.492L166.371 104.137L179.878 121.005L183.687 117.204L184.098 117.621L184.133 117.587L189.411 122.921L193.235 133.345C193.235 133.345 213.245 112.663 212.124 109.472ZM107.349 31.9591L107.085 31.6534C105.475 33.6643 102.627 36.097 99.4521 37.7442V35.5277L99.6025 35.3959V34.4313C101.609 32.5865 103.061 30.2189 103.793 27.5949C104.525 24.971 104.509 22.195 103.746 19.5798L112.513 26.3031L107.349 31.9591ZM77.5918 6.96583L77.3807 6.75499L77.5945 6.96583H77.5918ZM70.5848 21.0609C70.5268 21.7638 70.503 22.471 70.5136 23.1826C70.4981 24.2159 70.5554 25.2489 70.6851 26.2741C71.1364 29.8559 72.4217 32.784 75.0688 34.1809C77.3754 35.3933 78.8929 35.3274 79.8589 34.4998L79.9644 34.5947C80.0456 35.9956 80.4101 37.3655 81.0359 38.6219C76.0946 37.5915 71.3755 35.6935 67.0985 33.016C67.0985 33.016 67.1143 33.1952 67.1328 33.5167L63.5065 29.8954L70.5848 21.0609Z" fill="url(#paint9_linear)"/>
<path d="M136.754 133.695L130.829 144.873L140.045 148.816L145.97 136.326L136.754 133.695Z" fill="#FDC97B"/>
<path d="M140.045 148.816L140.702 151.451C140.702 151.451 152.552 159.998 149.918 161.97C147.284 163.941 122.268 151.451 122.268 151.451L130.827 144.875L140.045 148.816Z" fill="#333333"/>
<path opacity="0.1" d="M145.339 137.485L136.015 134.383L133.241 139.612L142.457 143.558L145.339 137.485Z" fill="black"/>
<path d="M178.854 112.758L187.754 121.756L194.286 114.158L184.13 104.767L178.854 112.758Z" fill="#FDC97B"/>
<path opacity="0.1" d="M184.497 105.205L179.221 113.198L182.594 116.606L189.437 109.772L184.497 105.205Z" fill="black"/>
<path d="M194.286 114.155L196.996 114.316C196.996 114.316 208.714 105.589 209.809 108.689C210.904 111.788 191.47 131.882 191.47 131.882L187.756 121.756L194.286 114.155Z" fill="#333333"/>
<path d="M109.908 46.8791L123.585 31.0656C124.072 30.503 124.322 29.7735 124.281 29.0308C124.241 28.2881 123.914 27.5899 123.368 27.0832L93.6089 4.55951L89.9958 10.1891L113.06 27.9187L103.268 38.6403L109.908 46.8791Z" fill="#FDC97B"/>
<path opacity="0.1" d="M108.338 33.1082L103.553 38.3478L110.201 46.5971L117.063 38.6746C113.716 37.6163 110.707 35.6965 108.338 33.1082Z" fill="black"/>
<path d="M70.2021 50.3107L54.7181 38.7141C53.773 38.0061 53.1293 36.9691 52.9146 35.8089C52.7 34.6488 52.9302 33.4505 53.5595 32.452L76.7288 6.70496L81.4793 11.449L65.4516 31.3872L74.9262 40.849L70.2021 50.3107Z" fill="#FDC97B"/>
<path opacity="0.1" d="M66.9269 47.9756L69.4605 49.8732L74.211 40.4114L68.2465 34.4734C68.3731 36.487 68.7294 44.3121 66.9269 47.9756Z" fill="black"/>
<path d="M145.337 96.2358L131.122 138.819L145.337 143.55L169.023 96.2358L150.074 91.5049L145.337 96.2358Z" fill="#4D8AF0"/>
<path opacity="0.1" d="M144.677 97.5509L143.967 99.6805L158.892 97.5509L164.722 104.83L168.366 97.5509L149.414 92.8201L144.677 97.5509Z" fill="black"/>
<path d="M76.697 6.73395C76.697 6.73395 82.7671 -1.0832 87.3778 4.17743C91.9884 9.43806 80.1359 10.0943 80.1359 10.0943L76.697 6.73395Z" fill="#FDC97B"/>
<path d="M83.7462 86.774L88.3252 95.9221C89.7506 98.7694 92.0371 101.097 94.8607 102.574C97.6843 104.051 100.902 104.604 104.057 104.153L159.549 96.2463L178.501 119.903L192.712 105.711L162.138 79.5393C161.322 78.841 160.369 78.3205 159.34 78.0115C158.311 77.7024 157.229 77.6114 156.163 77.7445L83.7462 86.774Z" fill="#4D8AF0"/>
<path opacity="0.1" d="M69.822 35.7359C69.822 35.7359 71.0703 51.1014 66.333 51.6285L75.8076 56.3725C75.8076 56.3725 75.2798 84.2333 85.2823 94.2222C85.2823 94.2222 103.706 84.2333 123.183 84.7604C142.661 85.2875 118.433 65.8343 118.433 65.8343L115.234 44.2963L117.873 40.3429C114.305 39.2759 111.111 37.225 108.657 34.426C106.018 37.7126 99.9851 42.1694 94.7516 42.1694H92.4872C84.6858 42.1694 76.3883 40.588 69.8141 36.3974L69.822 35.7359Z" fill="black"/>
<path d="M68.9432 34.4207C68.9432 34.4207 70.2021 49.7862 65.4515 50.3107L74.9262 55.0547C74.9262 55.0547 74.3983 82.9155 84.4008 92.9044C84.4008 92.9044 102.825 82.9155 122.302 83.4426C141.779 83.9697 117.552 64.5165 117.552 64.5165L114.353 42.9785L116.992 39.0251C113.424 37.9581 110.229 35.9072 107.776 33.1082C105.137 36.3948 99.1037 40.8516 93.8702 40.8516H91.6058C83.8044 40.8516 75.5068 38.6192 68.9326 34.4207H68.9432Z" fill="#3AD29F"/>
<path d="M81.4238 30.0878V35.359C81.4241 38.0361 82.4893 40.6034 84.385 42.4962L95.6384 53.7343L99.3834 46.2519C100.036 44.9491 100.376 43.5126 100.376 42.056V30.0878H81.4238Z" fill="#FDC97B"/>
<path opacity="0.1" d="M81.569 36.1734C81.569 36.3684 81.569 36.5608 81.5874 36.7558C84.1938 39.0772 87.5649 40.3588 91.0572 40.3558C94.5495 40.3529 97.9185 39.0657 100.521 36.74V30.8917H81.569V36.1734Z" fill="black"/>
<path d="M90.8985 39.5523C98.7475 39.5523 105.11 33.198 105.11 25.3596C105.11 17.5212 98.7475 11.167 90.8985 11.167C83.0494 11.167 76.6865 17.5212 76.6865 25.3596C76.6865 33.198 83.0494 39.5523 90.8985 39.5523Z" fill="#FDC97B"/>
<path opacity="0.1" d="M81.4239 21.3562H105.113C105.113 21.3562 114.588 11.8944 105.113 7.16353C103.056 6.18453 100.901 5.4248 98.6841 4.89693C84.2768 1.24928 70.5768 13.1489 72.4295 27.8766C72.8677 31.3556 74.116 34.202 76.6865 35.5488C86.6864 40.7989 81.4239 21.3562 81.4239 21.3562Z" fill="black"/>
<path d="M81.4239 20.6999H105.113C105.113 20.6999 114.588 11.2382 105.113 6.50728C103.056 5.52828 100.901 4.76855 98.6841 4.24068C84.2768 0.593028 70.5768 12.4927 72.4295 27.2203C72.8677 30.6993 74.116 33.5458 76.6865 34.8925C86.6864 40.1505 81.4239 20.6999 81.4239 20.6999Z" fill="#333333"/>
<path d="M82.11 27.845C82.8374 27.845 83.427 26.8148 83.427 25.5441C83.427 24.2734 82.8374 23.2432 82.11 23.2432C81.3827 23.2432 80.7931 24.2734 80.7931 25.5441C80.7931 26.8148 81.3827 27.845 82.11 27.845Z" fill="#FDC97B"/>
<path opacity="0.1" d="M74.8682 54.8017L75.528 52.8276L77.5021 54.1428L74.8682 54.8017Z" fill="black"/>
<path opacity="0.1" d="M117.588 64.5192C117.588 64.5192 110.42 67.9454 108.444 71.2399L117.588 64.5192Z" fill="black"/>
<path opacity="0.1" d="M114.369 42.968L113.711 44.9394L112.395 42.968H114.369Z" fill="black"/>
<path d="M81.4239 20.6999H105.113C105.113 20.6999 114.588 11.2382 105.113 6.50728C103.056 5.52828 100.901 4.76855 98.6841 4.24068C84.2768 0.593028 70.5768 12.4927 72.4295 27.2203C72.8677 30.6993 74.116 33.5458 76.6865 34.8925C86.6864 40.1505 81.4239 20.6999 81.4239 20.6999Z" fill="#333333"/>
<path opacity="0.1" d="M145.155 73.8386C145.155 73.8386 149.961 84.2729 143.65 85.1716C137.34 86.0703 140.219 76.432 140.219 76.432C140.219 76.432 139.589 73.5724 138.053 73.4116" fill="black"/>
<path opacity="0.1" d="M150.961 73.5856C150.961 73.5856 145.247 83.5534 151.452 84.9977C157.656 86.442 155.645 76.598 155.645 76.598C155.645 76.598 156.527 73.807 158.073 73.7806" fill="black"/>
<path d="M144.598 73.546C144.598 73.546 149.404 83.9803 143.093 84.879C136.783 85.7778 139.662 76.1394 139.662 76.1394C139.662 76.1394 139.032 73.2719 137.501 73.1111" fill="#FFD180"/>
<path d="M151.407 73.1454C151.407 73.1454 145.682 83.1158 151.898 84.5496C158.113 85.9833 156.091 76.15 156.091 76.15C156.091 76.15 156.973 73.3589 158.519 73.3325" fill="#FFD180"/>
<path opacity="0.5" d="M141.177 82.71H141.069V84.7473H141.177V82.71Z" fill="#58555D"/>
<path opacity="0.5" d="M142.924 82.71H142.816V84.7473H142.924V82.71Z" fill="#58555D"/>
<path opacity="0.5" d="M141.977 82.0616H141.869V84.9107H141.977V82.0616Z" fill="#58555D"/>
<path opacity="0.5" d="M152.526 82.275H152.418V84.3123H152.526V82.275Z" fill="#58555D"/>
<path opacity="0.5" d="M154.273 82.275H154.165V84.3123H154.273V82.275Z" fill="#58555D"/>
<path opacity="0.5" d="M153.326 81.6241H153.217V84.4731H153.326V81.6241Z" fill="#58555D"/>
<g opacity="0.5">
<path opacity="0.5" d="M148.983 201.919C155.56 199.716 159.103 192.606 156.897 186.039C154.692 179.471 147.572 175.932 140.996 178.135C134.419 180.338 130.876 187.447 133.081 194.015C135.287 200.583 142.406 204.121 148.983 201.919Z" fill="url(#paint10_linear)"/>
</g>
<path d="M148.728 201.159C154.884 199.097 158.201 192.442 156.137 186.293C154.072 180.145 147.407 176.833 141.251 178.895C135.094 180.957 131.777 187.612 133.842 193.76C135.907 199.908 142.571 203.221 148.728 201.159Z" fill="#F55F44"/>
<g opacity="0.5">
<path opacity="0.5" d="M113.698 205.755C112.009 206.322 109.906 205.918 109.122 204.3C108.671 203.364 108.779 202.318 108.884 201.306C109.001 200.196 109.098 199.24 108.473 198.62C108.15 198.346 107.769 198.147 107.359 198.038C106.831 197.861 106.261 197.714 105.717 197.571C104.748 197.349 103.801 197.038 102.888 196.644C101.094 195.803 99.9456 194.382 99.8189 192.843C99.7107 191.525 100.347 190.324 100.954 189.172C101.561 188.02 102.173 186.876 101.883 185.746C101.489 184.22 99.6553 183.495 98.0401 182.846L97.7762 182.746C95.8021 181.956 93.6854 180.287 94.2133 178.147C94.398 177.401 94.8704 176.829 95.327 176.302C95.6366 175.959 95.9025 175.58 96.1188 175.172C96.8313 173.672 95.8548 171.938 95.4194 171.26C95.0789 170.733 94.6751 170.248 94.2845 169.766C93.6723 169.058 93.1305 168.291 92.6667 167.478L92.5928 167.341C91.5213 165.317 91.5002 165.233 91.5899 163.027V162.763L92.5242 162.8V163.064C92.445 165.064 92.445 165.064 93.4189 166.904L93.4928 167.041C93.9282 167.801 94.4365 168.516 95.0103 169.178C95.4141 169.676 95.8311 170.193 96.1979 170.744C97.3301 172.454 97.6073 174.212 96.9607 175.57C96.708 176.046 96.3959 176.489 96.0317 176.887C95.6252 177.372 95.2399 177.831 95.108 178.369C94.6962 180.032 96.7997 181.355 98.1087 181.877L98.3594 181.977C100.093 182.662 102.252 183.516 102.764 185.5C103.144 186.974 102.44 188.302 101.756 189.588C101.183 190.669 100.64 191.697 100.727 192.751C100.843 194.166 102.112 195.244 103.26 195.785C104.121 196.155 105.014 196.446 105.929 196.654C106.488 196.799 107.066 196.952 107.631 197.139C108.18 197.29 108.686 197.566 109.109 197.946C110.051 198.879 109.919 200.157 109.792 201.393C109.697 202.316 109.605 203.188 109.943 203.884C110.552 205.144 112.442 205.328 113.756 204.709C114.833 204.203 115.68 203.341 116.578 202.431C116.868 202.136 117.169 201.833 117.475 201.543C119.148 199.962 120.84 199.271 122.371 199.538C122.856 199.639 123.33 199.791 123.783 199.994C124.135 200.148 124.5 200.273 124.873 200.368C125.705 200.516 126.562 200.345 127.274 199.89C127.986 199.435 128.499 198.728 128.713 197.911C128.747 197.756 128.771 197.593 128.797 197.421C128.879 196.873 128.971 196.251 129.409 195.769C129.847 195.286 130.542 195.11 131.035 194.996L136.129 193.821L136.34 194.73L131.246 195.906C130.763 196.016 130.344 196.132 130.103 196.396C129.863 196.66 129.792 197.1 129.726 197.558C129.7 197.738 129.671 197.925 129.631 198.109C129.363 199.167 128.701 200.083 127.78 200.671C126.859 201.259 125.749 201.474 124.675 201.272C124.251 201.166 123.837 201.025 123.437 200.85C123.045 200.674 122.635 200.54 122.215 200.45C120.663 200.186 119.135 201.259 118.124 202.213C117.831 202.489 117.536 202.79 117.251 203.077C116.335 204.005 115.39 204.967 114.163 205.544C114.012 205.623 113.857 205.694 113.698 205.755Z" fill="url(#paint11_linear)"/>
</g>
<path d="M113.825 205.291C112.136 205.858 110.033 205.454 109.249 203.836C108.797 202.9 108.906 201.854 109.011 200.842C109.127 199.733 109.225 198.776 108.599 198.156C108.276 197.882 107.896 197.683 107.486 197.574C106.958 197.397 106.388 197.25 105.844 197.107C104.875 196.885 103.928 196.574 103.015 196.18C101.22 195.339 100.072 193.918 99.9456 192.379C99.8374 191.061 100.473 189.86 101.08 188.708C101.687 187.556 102.3 186.412 102.009 185.282C101.616 183.756 99.782 183.031 98.1668 182.382L97.9029 182.282C95.9288 181.492 93.8121 179.823 94.34 177.683C94.5247 176.937 94.9971 176.365 95.4537 175.838C95.7633 175.495 96.0292 175.116 96.2455 174.708C96.958 173.208 95.9816 171.474 95.5461 170.796C95.2056 170.269 94.8018 169.784 94.4112 169.302C93.7991 168.594 93.2572 167.827 92.7934 167.014L92.7195 166.877C91.648 164.853 91.6269 164.769 91.7166 162.563V162.299L92.6509 162.336V162.6C92.5717 164.6 92.5717 164.6 93.5456 166.44L93.6195 166.577C94.0549 167.337 94.5632 168.053 95.137 168.714C95.5408 169.212 95.9578 169.729 96.3246 170.28C97.4569 171.99 97.734 173.748 97.0874 175.106C96.8347 175.582 96.5226 176.025 96.1584 176.423C95.7519 176.908 95.3666 177.367 95.2347 177.905C94.823 179.568 96.9264 180.891 98.2354 181.413L98.4861 181.513C100.22 182.198 102.379 183.052 102.891 185.037C103.271 186.51 102.566 187.838 101.883 189.124C101.31 190.205 100.766 191.233 100.853 192.287C100.97 193.702 102.239 194.78 103.387 195.321C104.248 195.691 105.141 195.982 106.055 196.19C106.615 196.335 107.193 196.488 107.758 196.675C108.306 196.826 108.812 197.102 109.235 197.482C110.178 198.415 110.046 199.693 109.919 200.929C109.824 201.852 109.732 202.724 110.069 203.42C110.679 204.68 112.569 204.864 113.883 204.245C114.96 203.739 115.807 202.877 116.704 201.968C116.995 201.672 117.296 201.369 117.602 201.079C119.275 199.498 120.967 198.807 122.497 199.074C122.983 199.175 123.456 199.327 123.909 199.53C124.262 199.684 124.626 199.809 124.999 199.904C125.831 200.052 126.689 199.881 127.401 199.426C128.112 198.971 128.626 198.264 128.839 197.447C128.874 197.292 128.897 197.129 128.924 196.957C129.006 196.409 129.098 195.787 129.536 195.305C129.974 194.822 130.668 194.646 131.162 194.533L136.255 193.357L136.466 194.266L131.373 195.442C130.89 195.552 130.47 195.668 130.23 195.932C129.99 196.196 129.919 196.636 129.853 197.094C129.826 197.274 129.797 197.461 129.758 197.645C129.49 198.703 128.828 199.619 127.907 200.207C126.986 200.795 125.875 201.01 124.801 200.808C124.378 200.702 123.964 200.561 123.564 200.386C123.171 200.21 122.762 200.076 122.342 199.986C120.79 199.722 119.262 200.795 118.251 201.749C117.958 202.025 117.662 202.326 117.377 202.613C116.462 203.541 115.517 204.503 114.29 205.08C114.139 205.159 113.984 205.23 113.825 205.291Z" fill="#F55F44"/>
<path opacity="0.2" d="M144.305 181.663C144.305 181.663 150.81 180.68 153.996 189.746" stroke="black" stroke-miterlimit="10"/>
<path opacity="0.2" d="M137.108 196.106C137.108 196.106 132.278 189.28 140.884 181.753" stroke="black" stroke-miterlimit="10"/>
<path opacity="0.2" d="M139.085 193.613C139.085 193.613 136.754 190.031 139.198 186.821" stroke="black" stroke-miterlimit="10"/>
<path opacity="0.2" d="M143.257 185.461C143.257 185.461 146.342 186.679 146.775 192.163" stroke="black" stroke-miterlimit="10"/>
<path opacity="0.2" d="M146.878 179.041C146.878 179.041 151.697 179.96 155.06 186.578" stroke="black" stroke-miterlimit="10"/>
<path opacity="0.2" d="M140.668 181.12C140.668 181.12 142.946 179.512 145.06 180.353" stroke="black" stroke-miterlimit="10"/>
<path opacity="0.2" d="M142.389 196.298C142.389 196.298 145.434 198.233 153.283 192.651" stroke="black" stroke-miterlimit="10"/>
<path opacity="0.2" d="M141.848 200.146C141.848 200.146 143.753 202.041 147.72 200.431" stroke="black" stroke-miterlimit="10"/>
<path opacity="0.2" d="M136.197 183.323C135.379 184.536 134.829 185.908 134.584 187.349C134.34 188.79 134.405 190.267 134.777 191.681" stroke="black" stroke-miterlimit="10"/>
<path opacity="0.2" d="M138.755 195.553C138.755 195.553 138.504 197.326 140.491 198.207" stroke="black" stroke-miterlimit="10"/>
<path opacity="0.2" d="M154.553 193.499C154.553 193.499 154.431 196.926 152.531 197.131" stroke="black" stroke-miterlimit="10"/>
<path opacity="0.2" d="M144.125 198.539C145.272 198.691 146.439 198.581 147.536 198.216C148.634 197.85 149.634 197.24 150.459 196.43" stroke="black" stroke-miterlimit="10"/>
<path opacity="0.2" d="M147.06 186.299C147.06 186.299 148.71 187.435 148.546 189.462" stroke="black" stroke-miterlimit="10"/>
<path opacity="0.2" d="M140.768 188.547C140.768 188.547 140.309 190.953 141.494 192.385" stroke="black" stroke-miterlimit="10"/>
<path opacity="0.2" d="M142.162 188.081C142.162 188.081 143.856 190.189 143.394 191.749" stroke="black" stroke-miterlimit="10"/>
</g>
<defs>
<linearGradient id="paint0_linear" x1="128" y1="162.423" x2="128" y2="23.86" gradientUnits="userSpaceOnUse">
<stop stop-color="#808080" stop-opacity="0.25"/>
<stop offset="0.54" stop-color="#808080" stop-opacity="0.12"/>
<stop offset="1" stop-color="#808080" stop-opacity="0.1"/>
</linearGradient>
<linearGradient id="paint1_linear" x1="20067.4" y1="-117094" x2="13722.3" y2="-126127" gradientUnits="userSpaceOnUse">
<stop stop-color="#808080" stop-opacity="0.25"/>
<stop offset="0.54" stop-color="#808080" stop-opacity="0.12"/>
<stop offset="1" stop-color="#808080" stop-opacity="0.1"/>
</linearGradient>
<linearGradient id="paint2_linear" x1="2937.09" y1="-16991.3" x2="2823.85" y2="-17152.5" gradientUnits="userSpaceOnUse">
<stop stop-color="#808080" stop-opacity="0.25"/>
<stop offset="0.54" stop-color="#808080" stop-opacity="0.12"/>
<stop offset="1" stop-color="#808080" stop-opacity="0.1"/>
</linearGradient>
<linearGradient id="paint3_linear" x1="3428.91" y1="-16722.5" x2="3315.63" y2="-16883.8" gradientUnits="userSpaceOnUse">
<stop stop-color="#808080" stop-opacity="0.25"/>
<stop offset="0.54" stop-color="#808080" stop-opacity="0.12"/>
<stop offset="1" stop-color="#808080" stop-opacity="0.1"/>
</linearGradient>
<linearGradient id="paint4_linear" x1="2680.81" y1="-16425.7" x2="2567.53" y2="-16587" gradientUnits="userSpaceOnUse">
<stop stop-color="#808080" stop-opacity="0.25"/>
<stop offset="0.54" stop-color="#808080" stop-opacity="0.12"/>
<stop offset="1" stop-color="#808080" stop-opacity="0.1"/>
</linearGradient>
<linearGradient id="paint5_linear" x1="3145.2" y1="-16136.9" x2="3031.92" y2="-16298.1" gradientUnits="userSpaceOnUse">
<stop stop-color="#808080" stop-opacity="0.25"/>
<stop offset="0.54" stop-color="#808080" stop-opacity="0.12"/>
<stop offset="1" stop-color="#808080" stop-opacity="0.1"/>
</linearGradient>
<linearGradient id="paint6_linear" x1="14674.3" y1="12312.5" x2="14674.3" y2="7348.14" gradientUnits="userSpaceOnUse">
<stop stop-color="#808080" stop-opacity="0.25"/>
<stop offset="0.54" stop-color="#808080" stop-opacity="0.12"/>
<stop offset="1" stop-color="#808080" stop-opacity="0.1"/>
</linearGradient>
<linearGradient id="paint7_linear" x1="28065.6" y1="26229.9" x2="28065.6" y2="11612.5" gradientUnits="userSpaceOnUse">
<stop stop-color="#808080" stop-opacity="0.25"/>
<stop offset="0.54" stop-color="#808080" stop-opacity="0.12"/>
<stop offset="1" stop-color="#808080" stop-opacity="0.1"/>
</linearGradient>
<linearGradient id="paint8_linear" x1="146.572" y1="64.9224" x2="146.572" y2="62.2551" gradientUnits="userSpaceOnUse">
<stop stop-color="white"/>
<stop offset="1"/>
</linearGradient>
<linearGradient id="paint9_linear" x1="99092.3" y1="112453" x2="99092.3" y2="9740.13" gradientUnits="userSpaceOnUse">
<stop stop-color="#808080" stop-opacity="0.25"/>
<stop offset="0.54" stop-color="#808080" stop-opacity="0.12"/>
<stop offset="1" stop-color="#808080" stop-opacity="0.1"/>
</linearGradient>
<linearGradient id="paint10_linear" x1="25710" y1="-16790.9" x2="24951.6" y2="-19055.3" gradientUnits="userSpaceOnUse">
<stop stop-color="#808080" stop-opacity="0.25"/>
<stop offset="0.54" stop-color="#808080" stop-opacity="0.12"/>
<stop offset="1" stop-color="#808080" stop-opacity="0.1"/>
</linearGradient>
<linearGradient id="paint11_linear" x1="41102.7" y1="-29583.6" x2="38613.4" y2="-37016.4" gradientUnits="userSpaceOnUse">
<stop stop-color="#808080" stop-opacity="0.25"/>
<stop offset="0.54" stop-color="#808080" stop-opacity="0.12"/>
<stop offset="1" stop-color="#808080" stop-opacity="0.1"/>
</linearGradient>
<clipPath id="clip0">
<rect width="256" height="206" fill="white"/>
</clipPath>
</defs>
</svg>
