<svg width="310" height="295" viewBox="0 0 310 295" fill="none" xmlns="http://www.w3.org/2000/svg">
<path d="M168.857 279.917C246.808 279.917 310 272.865 310 264.166C310 255.468 246.808 248.416 168.857 248.416C90.9057 248.416 27.7139 255.468 27.7139 264.166C27.7139 272.865 90.9057 279.917 168.857 279.917Z" fill="#3F3D56"/>
<path d="M238.856 246.739L241.29 254.229C241.29 254.229 253.013 266.325 248.773 269.604C244.533 272.883 235.02 255.599 235.02 255.599L233.267 247.143L238.856 246.739Z" fill="#FFB8B8"/>
<path d="M216.365 188.762L219.913 187.581C219.913 187.581 225.432 189.156 226.221 194.669C227.009 200.181 232.923 228.138 232.923 228.138C232.923 228.138 235.289 229.319 233.712 231.288C232.135 233.257 241.597 250.976 241.597 250.976L234.106 254.519C234.106 254.519 219.124 238.769 219.124 237.194C219.124 235.619 219.519 234.044 219.519 232.469C219.519 230.894 219.124 230.894 219.519 229.713C219.782 228.683 219.914 227.625 219.913 226.563L217.153 220.263L216.365 188.762Z" fill="#FF93B5"/>
<path d="M35.6476 215.772C55.3352 215.772 71.2952 183.249 71.2952 143.129C71.2952 103.009 55.3352 70.4856 35.6476 70.4856C15.96 70.4856 0 103.009 0 143.129C0 183.249 15.96 215.772 35.6476 215.772Z" fill="#FF93B5"/>
<path d="M35.3202 143.882C37.0984 112.261 40.6811 90.9022 40.7171 90.6902L39.9398 90.5587C39.9038 90.7709 36.3147 112.164 34.5336 143.826C32.89 173.048 32.4934 217.248 39.9396 261.868L40.7173 261.739C33.2838 217.195 33.6794 173.062 35.3202 143.882Z" fill="#3F3D56"/>
<path d="M67.5084 128.397L35.2773 145.626L35.6495 146.32L67.8805 129.091L67.5084 128.397Z" fill="#3F3D56"/>
<path d="M1.62388 137.032L1.25195 137.727L33.4876 154.947L33.8595 154.253L1.62388 137.032Z" fill="#3F3D56"/>
<path d="M120.076 198.813C147.017 198.813 168.857 154.307 168.857 99.4067C168.857 44.5059 147.017 0 120.076 0C93.1351 0 71.2952 44.5059 71.2952 99.4067C71.2952 154.307 93.1351 198.813 120.076 198.813Z" fill="#E6E6E6"/>
<path d="M119.484 100.425C121.917 57.147 126.821 27.9143 126.87 27.624L126.093 27.4925C126.044 27.783 121.134 57.0499 118.697 100.369C116.448 140.35 115.905 200.822 126.093 261.868L126.87 261.739C116.696 200.769 117.238 140.363 119.484 100.425Z" fill="#3F3D56"/>
<path d="M163.744 79.3749L119.638 102.952L120.01 103.646L164.116 80.0693L163.744 79.3749Z" fill="#3F3D56"/>
<path d="M73.4488 91.1916L73.0769 91.886L117.189 115.451L117.561 114.757L73.4488 91.1916Z" fill="#3F3D56"/>
<path d="M79.4387 237.55C89.5046 237.55 97.6646 220.921 97.6646 200.409C97.6646 179.896 89.5046 163.268 79.4387 163.268C69.3729 163.268 61.2129 179.896 61.2129 200.409C61.2129 220.921 69.3729 237.55 79.4387 237.55Z" fill="#E6E6E6"/>
<path d="M79.4228 202.009L79.5307 202.21L96.0096 193.401L95.6377 192.707L79.4571 201.356C80.3525 184.897 82.1839 173.848 82.2208 173.63L81.4434 173.498C81.4031 173.736 79.2272 186.857 78.4549 205.843L62.1354 197.12L61.7634 197.814L78.2424 206.623L78.4391 206.256C77.8212 221.926 78.1676 241.52 81.4432 261.149L82.221 261.02C78.6495 239.619 78.5709 218.257 79.4228 202.009Z" fill="#3F3D56"/>
<path d="M221.189 151.385C214.852 140.598 202.314 140.095 202.314 140.095C202.314 140.095 190.096 138.521 182.259 154.95C174.954 170.263 164.872 185.048 180.636 188.633L183.483 179.705L185.247 189.297C187.491 189.46 189.743 189.499 191.992 189.413C208.873 188.864 224.951 189.574 224.433 183.471C223.745 175.359 227.287 161.764 221.189 151.385Z" fill="#2F2E41"/>
<path d="M177.016 237.788C176.839 238.916 176.582 240.03 176.247 241.121C175.87 242.189 175.288 243.176 174.944 244.255C173.845 247.694 175.368 251.528 177.801 254.183C179.904 256.472 182.628 258.101 185.642 258.873C187.836 259.429 190.118 259.509 192.38 259.586C198.642 259.8 205.066 259.992 211 257.964C212.876 257.307 214.687 256.479 216.41 255.488C216.955 255.226 217.435 254.846 217.814 254.375C218.266 253.726 218.324 252.884 218.32 252.091C218.307 249.416 217.769 246.756 217.896 244.084C217.967 242.604 218.242 241.126 218.107 239.651C217.925 237.981 217.231 236.409 216.12 235.148C215.01 233.887 213.537 232.999 211.902 232.606C210.219 232.242 208.473 232.44 206.759 232.606C202.31 233.037 197.843 233.238 193.373 233.209C188.807 233.18 184.269 232.478 179.725 232.404C178.382 232.383 178.409 232.8 177.981 234.11C177.587 235.316 177.265 236.544 177.016 237.788Z" fill="#2F2E41"/>
<path d="M159.16 235.615C157.933 235.304 156.667 235.168 155.402 235.212C154.071 235.296 152.773 235.659 151.593 236.277C150.412 236.895 149.375 237.755 148.55 238.801C147.733 239.862 147.145 241.081 146.826 242.381C146.506 243.681 146.461 245.033 146.693 246.352C146.999 247.78 147.5 249.159 148.182 250.451C149.179 252.489 150.374 254.522 152.22 255.828C153.33 256.546 154.528 257.12 155.783 257.537L165.501 261.225C166.931 261.767 168.361 262.31 169.805 262.813C177.054 265.338 184.618 266.853 192.282 267.315C194.616 267.455 196.985 267.494 199.261 266.958C199.818 266.885 200.327 266.608 200.691 266.18C200.876 265.855 200.985 265.492 201.01 265.118L201.608 260.9C201.742 260.313 201.724 259.701 201.557 259.123C201.283 258.414 200.596 257.968 199.942 257.589C193.552 253.892 186.092 251.853 180.714 246.779C179.448 245.585 178.389 243.692 176.851 242.88C175.106 241.96 173.052 241.435 171.249 240.587C167.307 238.734 163.432 236.604 159.16 235.615Z" fill="#2F2E41"/>
<path opacity="0.1" d="M168.863 241.3C172.298 242.385 186.801 249.897 189.286 252.52C188.953 252.641 177.648 246.258 177.309 246.156C174.225 245.223 171.124 244.285 168.196 242.921C167.607 242.646 164.369 241.356 164.516 240.607C164.681 239.762 168.253 241.108 168.863 241.3Z" fill="black"/>
<path d="M211.717 269.502C211.913 269.516 212.106 269.459 212.262 269.34C212.331 269.252 212.381 269.15 212.41 269.042C212.439 268.933 212.447 268.82 212.432 268.709L212.416 262.964C210.776 262.176 208.941 261.924 207.141 261.682L198.739 260.55C198.932 260.576 197.425 264.196 197.656 264.679C198.063 265.531 201.175 266.285 202.053 266.688C205.106 268.085 208.279 269.622 211.717 269.502Z" fill="#FFB8B8"/>
<path d="M185.356 262.944C183.77 263.198 181.999 263.423 180.972 264.667C179.669 266.245 180.224 268.597 180.845 270.551C180.937 270.946 181.122 271.313 181.386 271.621C181.81 272.043 182.46 272.105 183.054 272.143C184.501 272.235 186.041 272.307 187.305 271.592C187.878 271.211 188.429 270.798 188.956 270.356C189.887 269.732 190.912 269.26 191.992 268.958C193.974 268.33 196.016 267.906 198.085 267.693C198.901 267.655 199.708 267.512 200.486 267.266C200.876 267.139 201.231 266.924 201.525 266.637C201.818 266.35 202.041 266 202.177 265.613C202.469 264.569 201.867 263.504 201.289 262.589C200.569 261.448 199.807 260.247 198.734 259.407C197.168 258.182 196.394 259.122 194.817 259.906C191.835 261.39 188.645 262.414 185.356 262.944Z" fill="#FFB8B8"/>
<path d="M181.211 264.383L171.138 261.384C169.93 260.96 168.667 260.714 167.389 260.652C166.112 260.653 164.775 261.075 163.947 262.055C163.166 262.978 162.942 264.24 162.747 265.438L162.331 267.999C162.053 269.29 161.974 270.617 162.097 271.932C162.288 273.237 162.949 274.54 164.099 275.172C165.492 275.938 167.201 275.564 168.757 275.243C171.898 274.596 175.095 274.251 178.302 274.212C179.508 274.198 180.772 274.213 181.838 273.644C183.104 272.968 183.862 271.538 183.992 270.1C184.19 267.913 183.466 265.055 181.211 264.383Z" fill="#2F2E41"/>
<path d="M215.677 261.77C216.983 261.539 218.135 260.791 219.386 260.35C221.148 259.729 223.056 259.729 224.922 259.736C225.607 259.738 226.337 259.754 226.907 260.136C227.729 260.687 227.939 261.791 228.079 262.775L228.922 268.716C229.081 269.834 229.239 270.981 228.991 272.082C228.744 273.183 227.999 274.245 226.914 274.529C225.597 274.874 224.306 274.026 223.062 273.469C219.954 272.077 216.34 272.433 213.099 271.393C212.498 271.2 211.854 270.905 211.608 270.319C211.497 269.989 211.458 269.639 211.492 269.292C211.548 267.383 211.148 264.775 211.719 262.95C212.232 261.308 214.219 261.77 215.677 261.77Z" fill="#2F2E41"/>
<path d="M236.993 233.223C239.005 232.715 241.092 232.571 243.155 232.799C244.803 232.982 246.5 233.444 247.702 234.592C249.166 235.99 249.637 238.152 249.676 240.184C249.742 244.225 248.411 248.166 245.907 251.341C245.297 252.141 244.57 252.845 243.752 253.431C242.87 253.986 241.93 254.443 240.948 254.792L219.184 263.439C213.458 265.714 207.712 267.996 201.74 269.496C201.577 269.575 201.399 269.621 201.217 269.63C201.036 269.639 200.854 269.612 200.684 269.549C200.513 269.487 200.357 269.391 200.224 269.267C200.091 269.143 199.985 268.994 199.911 268.828C198.003 266.081 196.403 263.134 195.141 260.038C195.084 259.939 195.049 259.829 195.038 259.715C195.027 259.602 195.042 259.487 195.079 259.379C195.159 259.26 195.27 259.164 195.401 259.104L210.794 250.194C211.924 249.6 212.977 248.869 213.928 248.019C214.594 247.368 215.139 246.604 215.536 245.763C215.855 245.091 215.885 243.507 216.293 243.011C216.692 242.525 218.057 242.486 218.687 242.295C219.577 242.021 220.448 241.689 221.294 241.302C224.738 239.75 227.804 237.496 231.105 235.679C232.955 234.613 234.934 233.788 236.993 233.223Z" fill="#2F2E41"/>
<path opacity="0.1" d="M228.266 239.877C225.622 241.878 222.197 243.718 219.576 245.772C218.681 246.472 203.768 254.919 203.557 256.04C206.003 256.455 221.581 245.477 223.809 244.382C226.038 243.286 228.014 241.742 229.972 240.208C230.471 239.817 232.585 238.643 231.153 238.206C230.346 237.96 228.862 239.477 228.266 239.877Z" fill="black"/>
<path d="M201.777 178.525C210.051 178.525 216.759 171.826 216.759 163.562C216.759 155.298 210.051 148.599 201.777 148.599C193.503 148.599 186.796 155.298 186.796 163.562C186.796 171.826 193.503 178.525 201.777 178.525Z" fill="#FFB8B8"/>
<path d="M208.085 176.162C208.085 176.162 205.72 182.068 210.057 184.431C214.393 186.793 196.652 205.694 196.652 205.694L188.767 182.856C188.767 182.856 195.469 180.493 194.286 174.193L208.085 176.162Z" fill="#FFB8B8"/>
<path d="M198.229 192.306L207.777 181.779L220.701 188.368L218.73 234.831L215.576 238.375C215.576 238.375 202.171 250.188 181.67 240.344C181.67 240.344 174.574 234.438 174.968 225.381C175.362 216.325 174.179 215.144 174.179 215.144L173.785 183.25L193.25 179.435L198.229 192.306Z" fill="#FF93B5"/>
<path d="M154.448 242.407L152.014 249.898C152.014 249.898 140.29 261.994 144.53 265.273C148.771 268.552 158.284 251.268 158.284 251.268L160.037 242.811L154.448 242.407Z" fill="#FFB8B8"/>
<path d="M176.939 184.431L173.391 183.25C173.391 183.25 167.871 184.825 167.083 190.337C166.294 195.85 160.381 223.806 160.381 223.806C160.381 223.806 158.015 224.988 159.592 226.956C161.169 228.925 151.707 246.644 151.707 246.644L159.198 250.188C159.198 250.188 174.179 234.438 174.179 232.863C174.179 231.288 173.785 229.713 173.785 228.138C173.785 226.563 174.179 226.563 173.785 225.381C173.522 224.352 173.39 223.294 173.391 222.231L176.151 215.931L176.939 184.431Z" fill="#FF93B5"/>
<path d="M218.387 150.345L206 143.809L188.895 146.482L185.355 162.229L194.165 161.888L196.626 156.103V161.792L200.692 161.634L203.051 152.424L204.526 162.229L218.977 161.932L218.387 150.345Z" fill="#2F2E41"/>
<path d="M130.579 251.641V274.353H61.1191C61.1195 268.329 63.5154 262.553 67.7801 258.293C72.0447 254.034 77.8286 251.641 83.8597 251.641C90.3728 249.613 97.9031 248.967 106.072 249.18C113.78 249.377 122.055 250.342 130.579 251.641Z" fill="#FF6584"/>
<path d="M120.656 269.398H153.319C153.867 269.398 154.393 269.616 154.781 270.003C155.169 270.39 155.386 270.915 155.386 271.463C155.386 272.01 155.169 272.536 154.781 272.923C154.393 273.31 153.867 273.528 153.319 273.528H120.656V269.398Z" fill="#3F3D56"/>
<path d="M126.313 232.204L135.068 221.605C135.27 221.185 135.595 220.836 136.001 220.604C136.406 220.373 136.872 220.271 137.337 220.31C137.802 220.35 138.244 220.531 138.604 220.827C138.964 221.124 139.225 221.523 139.352 221.972L142.805 234.146L126.313 232.204Z" fill="#3F3D56"/>
<path d="M115.695 237.603L119.002 224.265C119.002 223.799 119.145 223.344 119.41 222.96C119.675 222.577 120.051 222.283 120.488 222.118C120.924 221.953 121.401 221.925 121.854 222.037C122.307 222.15 122.715 222.397 123.024 222.747L131.406 232.234L115.695 237.603Z" fill="#FF6584"/>
<path d="M61.1189 274.353H67.7342V288.393C67.7342 289.261 67.5631 290.12 67.2306 290.921C66.8982 291.723 66.4109 292.451 65.7966 293.065C65.1823 293.678 64.4531 294.165 63.6505 294.497C62.8478 294.829 61.9876 295 61.1189 295V274.353Z" fill="#FF6584"/>
<path d="M119.416 270.224H152.079C152.627 270.224 153.153 270.442 153.541 270.829C153.928 271.216 154.146 271.741 154.146 272.289C154.146 272.836 153.928 273.362 153.541 273.749C153.153 274.136 152.627 274.353 152.079 274.353H119.416V270.224Z" fill="#FF6584"/>
<path opacity="0.2" d="M130.579 251.641V274.227C127.223 274.583 123.83 274.175 120.655 273.033C117.48 271.892 114.605 270.046 112.247 267.636C109.888 265.225 108.107 262.312 107.038 259.116C105.968 255.919 105.638 252.522 106.072 249.18C113.78 249.377 122.055 250.342 130.579 251.641Z" fill="black"/>
<path d="M130.579 274.353C142.91 274.353 152.906 264.37 152.906 252.055C152.906 239.74 142.91 229.757 130.579 229.757C118.249 229.757 108.253 239.74 108.253 252.055C108.253 264.37 118.249 274.353 130.579 274.353Z" fill="#FF6584"/>
<path d="M152.079 259.488C153.449 259.488 154.56 256.9 154.56 253.707C154.56 250.514 153.449 247.926 152.079 247.926C150.709 247.926 149.598 250.514 149.598 253.707C149.598 256.9 150.709 259.488 152.079 259.488Z" fill="#3F3D56"/>
<path d="M146.084 249.165C146.426 249.165 146.704 248.518 146.704 247.719C146.704 246.921 146.426 246.274 146.084 246.274C145.741 246.274 145.464 246.921 145.464 247.719C145.464 248.518 145.741 249.165 146.084 249.165Z" fill="#3F3D56"/>
<path d="M150.632 246.274C150.974 246.274 151.252 245.627 151.252 244.829C151.252 244.031 150.974 243.384 150.632 243.384C150.289 243.384 150.012 244.031 150.012 244.829C150.012 245.627 150.289 246.274 150.632 246.274Z" fill="#3F3D56"/>
<path d="M128.706 229.509C128.706 229.509 127.465 227.353 127.465 226.038L128.706 229.509Z" fill="#3F3D56"/>
<path d="M129.252 228.114C129.252 228.114 129.928 225.721 130.87 224.802L129.252 228.114Z" fill="#3F3D56"/>
</svg>
