<svg width="309" height="216" viewBox="0 0 309 216" fill="none" xmlns="http://www.w3.org/2000/svg">
<path d="M91.9062 145.073C90.4105 146.547 89.5544 148.555 89.524 150.659C89.4936 152.764 90.2914 154.796 91.7438 156.313L142.002 208.579C142.733 209.339 143.607 209.945 144.573 210.363C145.539 210.78 146.578 211.001 147.63 211.011C148.682 211.021 149.725 210.821 150.699 210.422C151.673 210.024 152.559 209.434 153.304 208.689L306.664 55.2629C307.502 54.4247 308.142 53.4089 308.539 52.2899C308.936 51.1709 309.079 49.9769 308.957 48.7953C308.836 47.6137 308.453 46.4743 307.837 45.4605C307.221 44.4467 306.387 43.584 305.396 42.9356L245.092 3.46987C243.584 2.47263 241.781 2.02552 239.984 2.20322C238.187 2.38092 236.505 3.17267 235.22 4.44622L91.9062 145.073Z" fill="#3F3D56"/>
<path d="M307.716 45.2663C307.411 45.7358 307.059 46.1719 306.664 46.5676L153.665 202.892C152.919 203.637 152.034 204.227 151.06 204.625C150.086 205.024 149.043 205.224 147.991 205.214C146.939 205.204 145.9 204.983 144.934 204.566C143.967 204.148 143.093 203.542 142.363 202.782L91.0227 148.343C90.6729 147.977 90.3587 147.579 90.0845 147.154C88.1157 150.197 89.1339 153.599 91.7438 156.313L142.002 208.579C142.733 209.339 143.607 209.945 144.573 210.363C145.539 210.78 146.578 211.001 147.63 211.011C148.682 211.021 149.725 210.821 150.699 210.422C151.673 210.024 152.559 209.434 153.304 208.689L306.664 55.2629C307.955 53.9711 308.764 52.2724 308.955 50.4521C309.147 48.6318 308.709 46.8007 307.716 45.2663Z" fill="#FF93B5"/>
<path d="M293.516 47.1572L287.275 43.1591C287.933 44.3361 288.174 45.702 287.96 47.0345C287.746 48.3669 287.09 49.5873 286.097 50.4969C285.105 51.4065 283.835 51.9517 282.495 52.0438C281.155 52.1358 279.824 51.7692 278.717 51.0036L238.332 23.106C237.414 22.4729 236.691 21.5934 236.247 20.5677C235.802 19.542 235.653 18.4114 235.817 17.3048C235.981 16.1982 236.451 15.1601 237.173 14.3088C237.896 13.4575 238.842 12.8273 239.903 12.49L236.688 10.4302C236.271 10.1629 235.775 10.0474 235.283 10.1029C234.792 10.1584 234.334 10.3816 233.986 10.7352L98.1268 144.886C97.9241 145.092 97.7644 145.337 97.6572 145.606C97.55 145.875 97.4974 146.163 97.5025 146.452C97.5076 146.742 97.5703 147.028 97.6869 147.293C97.8035 147.558 97.9717 147.797 98.1815 147.996L147.522 196.302C147.931 196.69 148.474 196.902 149.036 196.894C149.599 196.886 150.136 196.659 150.534 196.26L293.88 50.5298C294.11 50.2999 294.285 50.0211 294.393 49.714C294.501 49.4069 294.539 49.0794 294.504 48.7557C294.469 48.4319 294.362 48.1201 294.191 47.8435C294.02 47.5668 293.79 47.3322 293.516 47.1572Z" fill="white"/>
<path d="M136.714 115.264L178.391 154.748L277.523 56.3379L227.213 23.4351L136.714 115.264Z" fill="#A4A4A4"/>
<path d="M273.671 80.6247C273.945 80.8882 274.311 81.0352 274.69 81.0352C275.07 81.0352 275.436 80.8882 275.71 80.6247L284.38 71.9143C284.649 71.6423 284.801 71.2738 284.801 70.8896C284.801 70.5054 284.649 70.1369 284.38 69.8649C284.105 69.6014 283.739 69.4543 283.36 69.4543C282.98 69.4543 282.614 69.6014 282.34 69.8649L273.671 78.5753C273.401 78.8473 273.249 79.2158 273.249 79.6C273.249 79.9841 273.401 80.3526 273.671 80.6247Z" fill="#3F3D56"/>
<path d="M259.067 95.2983C259.338 95.5696 259.704 95.7219 260.087 95.7219C260.469 95.7219 260.836 95.5696 261.107 95.2983L269.776 86.5878C270.046 86.3158 270.197 85.9474 270.197 85.5634C270.197 85.1794 270.045 84.8112 269.774 84.5396C269.504 84.2681 269.138 84.1154 268.756 84.1151C268.373 84.1148 268.007 84.267 267.736 84.5381L259.067 93.2487C258.797 93.5208 258.645 93.8893 258.645 94.2735C258.645 94.6577 258.797 95.0263 259.067 95.2983Z" fill="#3F3D56"/>
<path d="M137.676 158.938C143.053 158.938 147.412 154.558 147.412 149.155C147.412 143.753 143.053 139.373 137.676 139.373C132.3 139.373 127.941 143.753 127.941 149.155C127.941 154.558 132.3 158.938 137.676 158.938Z" fill="#FF93B5"/>
<path d="M231.925 211.619H24.9209V210.829H232.067L231.925 211.619Z" fill="#3F3D56"/>
<path d="M208.711 64.6253H105.797V85.0413H208.711V64.6253Z" fill="#E6E6E6"/>
<path d="M208.711 32.3658H105.797V52.7818H208.711V32.3658Z" fill="#E6E6E6"/>
<path d="M208.711 0H105.797V20.416H208.711V0Z" fill="#E6E6E6"/>
<path d="M107.991 18.2115H206.517V2.20447H107.991V18.2115Z" fill="white"/>
<path d="M107.991 50.6485H206.517V34.6414H107.991V50.6485Z" fill="white"/>
<path d="M107.991 82.8369H206.517V66.8298H107.991V82.8369Z" fill="white"/>
<path d="M116.617 16.1737C119.969 16.1737 122.686 13.4434 122.686 10.0755C122.686 6.70747 119.969 3.97717 116.617 3.97717C113.265 3.97717 110.547 6.70747 110.547 10.0755C110.547 13.4434 113.265 16.1737 116.617 16.1737Z" fill="#FF93B5"/>
<path d="M191.031 7.68915H131.13V9.01486H191.031V7.68915Z" fill="#FF93B5"/>
<path d="M191.031 11.136H131.13V12.4617H191.031V11.136Z" fill="#FF93B5"/>
<path d="M116.617 48.8046C119.969 48.8046 122.686 46.0743 122.686 42.7063C122.686 39.3383 119.969 36.608 116.617 36.608C113.265 36.608 110.547 39.3383 110.547 42.7063C110.547 46.0743 113.265 48.8046 116.617 48.8046Z" fill="#CCCCCC"/>
<path d="M191.031 40.32H131.13V41.6457H191.031V40.32Z" fill="#CCCCCC"/>
<path d="M191.031 43.7669H131.13V45.0926H191.031V43.7669Z" fill="#CCCCCC"/>
<path d="M116.617 81.0642C119.969 81.0642 122.686 78.3339 122.686 74.9659C122.686 71.5979 119.969 68.8676 116.617 68.8676C113.265 68.8676 110.547 71.5979 110.547 74.9659C110.547 78.3339 113.265 81.0642 116.617 81.0642Z" fill="#CCCCCC"/>
<path d="M191.031 72.5796H131.13V73.9053H191.031V72.5796Z" fill="#CCCCCC"/>
<path d="M191.031 76.0265H131.13V77.3522H191.031V76.0265Z" fill="#CCCCCC"/>
<path d="M4.61629 214.023L7.27123 214.336C9.36833 215.607 11.8297 216.085 14.5558 215.988C14.9363 215.976 15.3073 215.865 15.6318 215.665C15.9564 215.465 16.2234 215.184 16.4063 214.848C16.565 214.554 16.654 214.227 16.6663 213.892C16.6786 213.558 16.6139 213.225 16.4772 212.92C16.3405 212.614 16.1356 212.345 15.8783 212.132C15.621 211.92 15.3184 211.769 14.9939 211.693L12.9766 211.221L8.10876 206.438L5.1721 201.097L0.906369 201.589L0.0183361 208.372C-0.0943177 209.729 0.32227 211.077 1.18016 212.132C2.03805 213.186 3.27013 213.864 4.61629 214.023Z" fill="#2F2E41"/>
<path d="M45.966 210.592L48.5681 211.207C50.5075 212.709 52.8986 213.466 55.618 213.681C55.9973 213.713 56.3784 213.645 56.7236 213.484C57.0687 213.323 57.3659 213.073 57.5856 212.761C57.7767 212.487 57.9022 212.172 57.9523 211.841C58.0025 211.51 57.9759 211.172 57.8748 210.853C57.7736 210.534 57.6005 210.243 57.3691 210.002C57.1376 209.761 56.8539 209.578 56.5402 209.465L54.5895 208.765L50.2959 203.455L47.9839 197.814H43.6902L42.0388 204.451C41.7729 205.786 42.0339 207.173 42.7667 208.319C43.4994 209.465 44.6466 210.28 45.966 210.592Z" fill="#2F2E41"/>
<path d="M48.0999 198.189L43.2444 198.939L35.5876 160.097L22.3282 137.392L6.26764 203.443L0.291598 204.569C0.961709 167.373 -2.30901 120.545 5.14713 114.875L37.6419 118.628L51.835 156.907L48.0999 198.189Z" fill="#2F2E41"/>
<path d="M24.5684 57.0806C30.7568 57.0806 35.7734 52.0399 35.7734 45.8219C35.7734 39.604 30.7568 34.5633 24.5684 34.5633C18.38 34.5633 13.3633 39.604 13.3633 45.8219C13.3633 52.0399 18.38 57.0806 24.5684 57.0806Z" fill="#FFB8B8"/>
<path d="M8.8811 63.0852L22.3272 65.3369L25.689 53.3275L15.9777 50.3254L8.8811 63.0852Z" fill="#FFB8B8"/>
<path d="M3.27869 116.376L39.135 119.754C36.2604 109.71 33.6267 99.7024 35.7734 89.7306C38.4995 80.8282 35.8683 75.5341 28.6769 71.3415L23.8213 60.4581L10.7488 58.957C7.2869 64.5497 5.87079 71.1789 6.74358 77.7064C8.60626 91.9009 8.10324 105.073 3.27869 116.376Z" fill="#FF93B5"/>
<path d="M20.1622 33.0447C23.989 32.7791 28.4135 32.7058 28.9676 33.7186C32.9303 33.5324 36.3815 34.9213 37.9734 38.1535C38.1094 38.4334 38.1826 38.7398 38.1879 39.0511C38.1933 39.3625 38.1306 39.6713 38.0044 39.9557C37.8781 40.2401 37.6913 40.4932 37.4571 40.6972C37.223 40.9012 36.9471 41.0512 36.649 41.1365C34.6388 41.7189 31.5746 42.4393 29.339 42.2092C24.6958 47.6942 26.6494 57.6981 31.1563 63.5425L27.0837 64.3813L19.3556 53.5677L21.7941 65.4707L12.3895 67.0163L9.10944 51.8896C8.41979 48.299 8.5924 44.5949 9.61293 41.0847C9.72195 40.7303 9.85347 40.3832 10.0067 40.0456C10.9126 38.066 12.335 36.3699 14.1231 35.1373C15.9112 33.9046 17.998 33.1815 20.1622 33.0447Z" fill="#2F2E41"/>
<path d="M26.4359 127.635L26.1881 136.347C26.154 137.548 26.574 138.718 27.3636 139.62C28.1533 140.522 29.2538 141.09 30.4436 141.21C31.2057 141.287 31.9749 141.176 32.685 140.888C33.3951 140.599 34.0249 140.142 34.5202 139.555C35.0155 138.968 35.3615 138.269 35.5284 137.518C35.6952 136.767 35.678 135.987 35.4782 135.244L33.5324 128.01L27.9299 97.2364L28.3034 79.2225L16.3513 78.8472L18.5923 99.1128L26.4359 127.635Z" fill="#FFB8B8"/>
<path d="M15.6044 80.7237C19.9347 79.0664 24.7202 79.0664 29.0505 80.7237L28.3035 65.7121C28.3035 64.1196 27.6738 62.5923 26.5531 61.4662C25.4324 60.3401 23.9124 59.7075 22.3274 59.7075C20.7425 59.7075 19.2225 60.3401 18.1017 61.4662C16.981 62.5923 16.3514 64.1196 16.3514 65.7121L15.6044 80.7237Z" fill="#FF93B5"/>
</svg>
