<svg width="374" height="258" viewBox="0 0 374 258" fill="none" xmlns="http://www.w3.org/2000/svg">
<g clip-path="url(#clip0)">
<path d="M374 19.198H113.719V182.381H374V19.198Z" fill="#DBDBDB"/>
<path d="M178.844 50.6346H131.173V81.8313H178.844V50.6346Z" fill="white"/>
<path d="M238.078 50.6346H190.407V81.8313H238.078V50.6346Z" fill="white"/>
<path d="M297.312 50.6346H249.642V81.8313H297.312V50.6346Z" fill="white"/>
<path d="M356.546 50.6346H308.876V81.8313H356.546V50.6346Z" fill="white"/>
<path d="M178.844 94.7899H131.173V125.987H178.844V94.7899Z" fill="white"/>
<path d="M238.078 94.7899H190.407V125.987H238.078V94.7899Z" fill="white"/>
<path d="M297.312 94.7899H249.642V125.987H297.312V94.7899Z" fill="white"/>
<path d="M356.546 94.7899H308.876V125.987H356.546V94.7899Z" fill="white"/>
<path d="M178.844 138.945H131.173V170.142H178.844V138.945Z" fill="white"/>
<path d="M238.078 138.945H190.407V170.142H238.078V138.945Z" fill="white"/>
<path d="M297.312 138.945H249.642V170.142H297.312V138.945Z" fill="white"/>
<path d="M356.546 138.945H308.876V170.142H356.546V138.945Z" fill="white"/>
<path d="M181.888 38.3959C185.837 38.3959 189.038 35.1727 189.038 31.1967C189.038 27.2206 185.837 23.9974 181.888 23.9974C177.939 23.9974 174.737 27.2206 174.737 31.1967C174.737 35.1727 177.939 38.3959 181.888 38.3959Z" fill="white"/>
<path d="M300.11 38.3959C304.06 38.3959 307.261 35.1727 307.261 31.1967C307.261 27.2206 304.06 23.9974 300.11 23.9974C296.161 23.9974 292.96 27.2206 292.96 31.1967C292.96 35.1727 296.161 38.3959 300.11 38.3959Z" fill="white"/>
<path d="M184.748 0H179.028V33.1165H184.748V0Z" fill="#DBDBDB"/>
<path d="M302.971 0H297.25V33.1165H302.971V0Z" fill="#DBDBDB"/>
<path d="M343.491 66.233C343.488 68.8393 342.552 71.3573 340.853 73.3241C339.154 75.291 336.808 76.5746 334.245 76.9392C331.681 77.3037 329.073 76.7247 326.9 75.3086C324.727 73.8924 323.134 71.7342 322.415 69.2305C321.695 66.7268 321.897 64.0458 322.984 61.6801C324.07 59.3145 325.968 57.423 328.329 56.3533C330.69 55.2836 333.355 55.1075 335.834 55.8574C338.313 56.6073 340.44 58.2328 341.825 60.4353C342.913 62.1704 343.491 64.1807 343.491 66.233Z" fill="#FF93B5"/>
<path d="M341.825 60.4353L331.213 71.117C330.546 70.0774 326.831 65.2463 326.831 65.2463C327.307 64.7617 327.815 64.3101 328.352 63.8945L331.433 68.0307L340.582 58.8191C341.046 59.3171 341.462 59.8582 341.825 60.4353Z" fill="white"/>
<path d="M225.023 110.388C225.02 112.995 224.084 115.513 222.385 117.479C220.686 119.446 218.34 120.73 215.777 121.094C213.213 121.459 210.605 120.88 208.432 119.464C206.259 118.048 204.666 115.889 203.947 113.386C203.227 110.882 203.429 108.201 204.516 105.835C205.602 103.47 207.5 101.578 209.861 100.509C212.222 99.4389 214.887 99.2628 217.366 100.013C219.845 100.763 221.972 102.388 223.357 104.591C224.445 106.326 225.023 108.336 225.023 110.388Z" fill="#FF93B5"/>
<path d="M223.357 104.591L212.745 115.272C212.078 114.233 208.363 109.402 208.363 109.402C208.839 108.917 209.347 108.465 209.884 108.05L212.965 112.186L222.114 102.974C222.578 103.472 222.994 104.014 223.357 104.591Z" fill="white"/>
<path d="M165.789 110.388C165.786 112.995 164.85 115.513 163.151 117.479C161.452 119.446 159.106 120.73 156.543 121.095C153.979 121.459 151.371 120.88 149.198 119.464C147.025 118.048 145.432 115.89 144.713 113.386C143.993 110.882 144.195 108.201 145.282 105.835C146.368 103.47 148.266 101.578 150.627 100.509C152.988 99.4389 155.652 99.2628 158.132 100.013C160.611 100.763 162.738 102.388 164.123 104.591C165.211 106.326 165.789 108.336 165.789 110.388Z" fill="#FF93B5"/>
<path d="M164.122 104.591L153.511 115.272C152.844 114.233 149.128 109.402 149.128 109.402C149.605 108.917 150.113 108.465 150.649 108.05L153.73 112.186L162.88 102.974C163.344 103.472 163.76 104.014 164.122 104.591Z" fill="white"/>
<g clip-path="url(#clip1)">
<path d="M133.053 177.733C135.182 177.945 137.318 177.461 139.373 176.865C143.447 175.683 147.674 173.805 149.786 170.139C150.557 168.8 150.995 167.301 151.426 165.818C152.296 162.824 153.172 159.796 153.312 156.683C153.463 153.257 152.717 149.852 151.15 146.8C150.919 146.339 150.529 145.976 150.052 145.78C149.22 145.454 148.763 145.899 148.4 146.362C146.197 149.175 146.425 153.091 146.241 156.653C146.056 160.225 145.353 163.751 144.156 167.122C143.647 168.552 142.977 170.041 141.686 170.845C140.895 171.338 139.954 171.519 139.037 171.691C137.666 171.947 136.169 172.186 134.94 171.529C133.681 170.856 132.848 169.113 131.395 168.823C129.958 168.536 127.997 170.036 127.355 171.299C125.618 174.722 130.202 177.447 133.053 177.733Z" fill="#FFD180"/>
<g opacity="0.1">
<path opacity="0.1" d="M141.686 170.845C140.895 171.338 139.954 171.519 139.037 171.691C138.095 171.867 137.096 172.028 136.163 171.903C137.334 172.389 138.706 172.176 139.974 171.939C140.89 171.768 141.832 171.587 142.622 171.094C143.914 170.289 144.584 168.8 145.092 167.37C146.29 163.999 146.992 160.473 147.177 156.902C147.361 153.339 147.133 149.424 149.336 146.611C149.591 146.285 149.896 145.974 150.341 145.928C150.249 145.87 150.152 145.821 150.052 145.78C149.22 145.454 148.763 145.899 148.4 146.362C146.197 149.175 146.425 153.091 146.241 156.653C146.056 160.225 145.353 163.751 144.156 167.122C143.647 168.552 142.977 170.041 141.686 170.845Z" fill="black"/>
<path opacity="0.1" d="M128.292 171.548C128.885 170.38 130.605 169.013 131.997 169.039C131.807 168.939 131.605 168.867 131.396 168.823C129.958 168.536 127.997 170.036 127.355 171.3C125.735 174.492 129.614 177.077 132.456 177.642C129.786 176.766 126.844 174.4 128.292 171.548Z" fill="black"/>
</g>
<path opacity="0.1" d="M139.838 158.725L115.112 146.456L111.547 153.586L136.273 165.855L139.838 158.725Z" fill="black"/>
<path d="M139.839 158.725L115.113 146.456L111.871 152.938L136.598 165.207L139.839 158.725Z" fill="#FF93B5"/>
<path d="M130.94 154.879C133.349 154.879 135.302 152.934 135.302 150.534C135.302 148.135 133.349 146.189 130.94 146.189C128.531 146.189 126.579 148.135 126.579 150.534C126.579 152.934 128.531 154.879 130.94 154.879Z" fill="#FF93B5"/>
<path d="M127.627 127.878C127.627 127.878 135.178 129.917 137.928 132.989C137.928 132.989 142.383 129.223 144.443 130.245C146.503 131.267 143.427 139.133 143.427 139.133L140.701 151.443C140.701 151.443 142.119 181.178 122.913 187.017C103.708 192.857 89.9464 168.951 94.3934 160.058C98.8404 151.164 112.197 134.737 112.197 134.737C112.197 134.737 123.843 121.731 125.901 121.044C127.958 120.358 127.627 127.878 127.627 127.878Z" fill="#FFD180"/>
<g opacity="0.1">
<path opacity="0.1" d="M139.113 166.612C140.283 161.643 140.817 156.546 140.701 151.443L140.271 153.386C140.373 157.824 139.985 162.259 139.113 166.612Z" fill="white"/>
<path opacity="0.1" d="M96.5454 158.826C100.992 149.932 111.767 136.681 111.767 136.681C111.767 136.681 123.413 123.675 125.47 122.988C127.528 122.301 127.196 129.822 127.196 129.822C127.196 129.822 134.748 131.861 137.498 134.933C137.498 134.933 141.952 131.167 144.013 132.189C144.812 132.586 144.837 134.014 144.569 135.613C145.165 133.376 145.563 130.801 144.443 130.245C142.383 129.223 137.928 132.989 137.928 132.989C135.178 129.917 127.627 127.878 127.627 127.878C127.627 127.878 127.958 120.358 125.901 121.044C123.843 121.731 112.197 134.737 112.197 134.737C112.197 134.737 101.423 147.988 96.9759 156.882C96.5741 157.685 96.4178 159.081 96.5454 158.826Z" fill="white"/>
</g>
<path d="M135.032 148.024C135.879 148.024 136.566 147.339 136.566 146.495C136.566 145.651 135.879 144.966 135.032 144.966C134.185 144.966 133.498 145.651 133.498 146.495C133.498 147.339 134.185 148.024 135.032 148.024Z" fill="#58555D"/>
<path d="M119.237 140.186C120.084 140.186 120.771 139.502 120.771 138.657C120.771 137.813 120.084 137.129 119.237 137.129C118.389 137.129 117.702 137.813 117.702 138.657C117.702 139.502 118.389 140.186 119.237 140.186Z" fill="#58555D"/>
<path d="M128.854 145.137C129.232 144.381 128.616 143.311 127.478 142.747C126.34 142.182 125.111 142.337 124.733 143.093C124.356 143.848 124.972 144.919 126.11 145.483C127.247 146.048 128.476 145.893 128.854 145.137Z" fill="#58555D"/>
<path d="M139.245 148.168L139.06 148.91L145.925 150.61L146.11 149.868L139.245 148.168Z" fill="#FFD180"/>
<path d="M137.886 150.905L137.685 151.642L145.235 153.687L145.436 152.95L137.886 150.905Z" fill="#FFD180"/>
<path d="M109.559 129.19L108.986 129.698L114.486 135.842L115.058 135.334L109.559 129.19Z" fill="#FFD180"/>
<path d="M105.723 131.53L105.281 132.154L113.524 137.952L113.967 137.328L105.723 131.53Z" fill="#FFD180"/>
<path opacity="0.1" d="M113.699 163.093C113.699 163.093 113.302 175.807 106.591 173.577C99.8814 171.348 107.515 163.222 107.515 163.222C107.515 163.222 108.305 160.077 106.858 159.159" fill="black"/>
<path opacity="0.1" d="M119.595 165.705C119.595 165.705 108.976 172.77 114.426 177.261C119.876 181.753 122.757 171.001 122.757 171.001C122.757 171.001 125.018 168.668 126.566 169.405" fill="black"/>
<path d="M113.281 162.525C113.281 162.525 112.884 175.239 106.174 173.01C99.4636 170.78 107.097 162.655 107.097 162.655C107.097 162.655 107.887 159.509 106.44 158.591" fill="#FFD180"/>
<path d="M120.246 165.486C120.246 165.486 109.627 172.551 115.077 177.043C120.528 181.534 123.408 170.782 123.408 170.782C123.408 170.782 125.669 168.449 127.217 169.187" fill="#FFD180"/>
<path opacity="0.5" d="M105.233 169.869L104.223 171.888L104.332 171.942L105.341 169.923L105.233 169.869Z" fill="#58555D"/>
<path opacity="0.5" d="M106.968 170.73L105.958 172.749L106.067 172.803L107.076 170.784L106.968 170.73Z" fill="#58555D"/>
<path opacity="0.5" d="M106.348 169.619L104.935 172.444L105.044 172.498L106.456 169.673L106.348 169.619Z" fill="#58555D"/>
<path opacity="0.5" d="M116.728 175.034L115.718 177.052L115.827 177.106L116.836 175.088L116.728 175.034Z" fill="#58555D"/>
<path opacity="0.5" d="M118.463 175.895L117.453 177.913L117.562 177.967L118.571 175.949L118.463 175.895Z" fill="#58555D"/>
<path opacity="0.5" d="M117.843 174.783L116.43 177.609L116.539 177.663L117.951 174.837L117.843 174.783Z" fill="#58555D"/>
<path opacity="0.1" d="M120.706 152.018C118.908 151.127 117.189 150.084 115.569 148.9C110.466 145.162 107.719 140.787 107.62 140.627L108.412 139.64C108.435 139.677 111.499 144.281 116.41 147.864C120.93 151.162 129.561 155.128 140.58 154.667L140.636 155.996C132.638 156.33 125.39 154.342 120.706 152.018Z" fill="black"/>
<path d="M120.587 152.868L120.563 152.798C120.685 152.775 120.8 152.725 120.899 152.65C120.998 152.576 121.079 152.48 121.134 152.37C121.19 152.259 121.219 152.138 121.219 152.014C121.22 151.891 121.192 151.769 121.137 151.658L121.204 151.627C121.263 151.747 121.294 151.879 121.293 152.013C121.293 152.147 121.262 152.279 121.202 152.399C121.143 152.519 121.056 152.623 120.949 152.705C120.843 152.786 120.719 152.842 120.587 152.868Z" fill="#4D8AF0"/>
<path opacity="0.1" d="M120.587 152.868L120.563 152.798C120.685 152.775 120.8 152.725 120.899 152.65C120.998 152.576 121.079 152.48 121.134 152.37C121.19 152.259 121.219 152.138 121.219 152.014C121.22 151.891 121.192 151.769 121.137 151.658L121.204 151.627C121.263 151.747 121.294 151.879 121.293 152.013C121.293 152.147 121.262 152.279 121.202 152.399C121.143 152.519 121.056 152.623 120.949 152.705C120.843 152.786 120.719 152.842 120.587 152.868Z" fill="black"/>
<path d="M140.713 154.403C129.693 154.863 121.062 150.897 116.542 147.6C111.631 144.017 108.567 139.413 108.544 139.375L107.405 140.068C107.503 140.229 110.598 144.898 115.702 148.635C117.321 149.819 119.04 150.863 120.839 151.754C125.522 154.078 132.771 156.066 140.768 155.731L140.713 154.403ZM121.104 151.775C121.078 151.762 121.056 151.741 121.042 151.716C121.027 151.691 121.021 151.661 121.023 151.632C121.025 151.603 121.035 151.575 121.053 151.552C121.071 151.529 121.096 151.512 121.124 151.502C121.151 151.493 121.181 151.492 121.21 151.5C121.238 151.508 121.263 151.523 121.283 151.546C121.302 151.568 121.314 151.595 121.318 151.624C121.321 151.653 121.316 151.682 121.303 151.708C121.295 151.726 121.283 151.741 121.268 151.754C121.253 151.767 121.236 151.776 121.218 151.783C121.199 151.789 121.18 151.791 121.16 151.79C121.141 151.789 121.122 151.783 121.104 151.775Z" fill="#F55F44"/>
<path opacity="0.1" d="M118.851 152.968C118.675 153.319 118.647 153.724 118.772 154.096C118.897 154.468 119.165 154.775 119.517 154.949C119.869 155.124 120.277 155.152 120.65 155.028C121.023 154.903 121.331 154.636 121.506 154.285C121.682 153.935 121.71 153.529 121.585 153.157C121.46 152.786 121.192 152.479 120.84 152.304C120.488 152.129 120.08 152.101 119.707 152.225C119.334 152.35 119.026 152.617 118.851 152.968ZM120.509 152.965C120.465 152.944 120.429 152.909 120.405 152.867C120.38 152.825 120.369 152.776 120.373 152.728C120.376 152.679 120.394 152.633 120.424 152.594C120.454 152.556 120.494 152.527 120.541 152.511C120.587 152.496 120.637 152.494 120.684 152.507C120.731 152.52 120.774 152.546 120.806 152.583C120.838 152.62 120.858 152.665 120.865 152.714C120.871 152.762 120.862 152.811 120.841 152.855C120.811 152.913 120.76 152.958 120.698 152.978C120.636 152.999 120.568 152.994 120.509 152.965L120.509 152.965Z" fill="url(#paint0_linear)"/>
<path d="M118.984 153.034C118.826 153.349 118.8 153.715 118.913 154.049C119.025 154.384 119.266 154.66 119.583 154.817C119.9 154.974 120.267 155 120.603 154.888C120.938 154.776 121.216 154.535 121.374 154.22C121.531 153.904 121.557 153.539 121.444 153.204C121.332 152.87 121.091 152.593 120.774 152.436C120.457 152.279 120.09 152.254 119.754 152.366C119.419 152.478 119.141 152.718 118.984 153.034ZM120.476 153.031C120.437 153.012 120.404 152.981 120.382 152.943C120.36 152.905 120.35 152.861 120.353 152.818C120.356 152.774 120.372 152.732 120.399 152.697C120.426 152.663 120.463 152.637 120.505 152.623C120.546 152.609 120.591 152.608 120.634 152.619C120.676 152.631 120.714 152.654 120.743 152.688C120.772 152.721 120.791 152.761 120.796 152.805C120.802 152.848 120.794 152.893 120.775 152.932C120.762 152.958 120.743 152.981 120.721 153C120.699 153.019 120.674 153.034 120.646 153.043C120.618 153.052 120.589 153.056 120.56 153.054C120.531 153.052 120.502 153.044 120.476 153.031Z" fill="#4D8AF0"/>
<path d="M120.54 152.845C120.482 152.724 120.452 152.592 120.453 152.458C120.454 152.324 120.485 152.193 120.545 152.073C120.606 151.953 120.693 151.849 120.8 151.768C120.907 151.687 121.031 151.632 121.163 151.606L121.178 151.679C121.057 151.702 120.942 151.753 120.844 151.828C120.745 151.903 120.665 151.999 120.61 152.11C120.555 152.22 120.526 152.342 120.527 152.466C120.527 152.589 120.555 152.711 120.611 152.821L120.54 152.845Z" fill="#4D8AF0"/>
<path d="M138.754 153.929C115.117 155.573 109.544 140.425 109.544 140.425L138.754 153.929Z" fill="#FFD180"/>
<path d="M77.0793 206.462H73.9822V232.547C73.9822 232.547 93.973 238.998 113.401 232.547V206.462H77.0793Z" fill="#3F3D56"/>
<path d="M93.4096 209.547C104.139 209.547 112.837 208.229 112.837 206.602C112.837 204.976 104.139 203.657 93.4096 203.657C82.68 203.657 73.9819 204.976 73.9819 206.602C73.9819 208.229 82.68 209.547 93.4096 209.547Z" fill="#3F3D56"/>
<path opacity="0.1" d="M93.4096 209.547C104.139 209.547 112.837 208.229 112.837 206.602C112.837 204.976 104.139 203.657 93.4096 203.657C82.68 203.657 73.9819 204.976 73.9819 206.602C73.9819 208.229 82.68 209.547 93.4096 209.547Z" fill="black"/>
<path d="M115.993 175.296C111.092 193.344 94.3052 204.521 94.3052 204.521C94.3052 204.521 85.4643 186.438 90.3653 168.39C95.2662 150.342 112.053 139.165 112.053 139.165C112.053 139.165 120.894 157.249 115.993 175.296Z" fill="#3F3D56"/>
<path d="M71.4082 175.296C76.3092 193.344 93.0961 204.521 93.0961 204.521C93.0961 204.521 101.937 186.438 97.036 168.39C92.1351 150.342 75.3482 139.165 75.3482 139.165C75.3482 139.165 66.5073 157.249 71.4082 175.296Z" fill="#FF93B5"/>
<path d="M78.6097 171.418C92.0581 184.459 93.7007 204.507 93.7007 204.507C93.7007 204.507 73.5392 203.41 60.0909 190.369C46.6426 177.327 45 157.28 45 157.28C45 157.28 65.1614 158.376 78.6097 171.418Z" fill="#3F3D56"/>
<path d="M108.792 171.418C95.3433 184.459 93.7007 204.507 93.7007 204.507C93.7007 204.507 113.862 203.41 127.31 190.369C140.759 177.327 142.401 157.28 142.401 157.28C142.401 157.28 122.24 158.376 108.792 171.418Z" fill="#3F3D56"/>
<path d="M93.6914 145.316C97.1124 145.316 99.8857 142.554 99.8857 139.146C99.8857 135.738 97.1124 132.975 93.6914 132.975C90.2704 132.975 87.4971 135.738 87.4971 139.146C87.4971 142.554 90.2704 145.316 93.6914 145.316Z" fill="#FF93B5"/>
<g opacity="0.5">
<path opacity="0.5" d="M150.055 242.999C157.756 242.999 163.999 236.78 163.999 229.109C163.999 221.437 157.756 215.218 150.055 215.218C142.354 215.218 136.111 221.437 136.111 229.109C136.111 236.78 142.354 242.999 150.055 242.999Z" fill="url(#paint1_linear)"/>
</g>
<path d="M150.055 242.113C157.265 242.113 163.109 236.29 163.109 229.109C163.109 221.927 157.265 216.105 150.055 216.105C142.846 216.105 137.001 221.927 137.001 229.109C137.001 236.29 142.846 242.113 150.055 242.113Z" fill="#F55F44"/>
<g opacity="0.5">
<path opacity="0.5" d="M112.18 237.983C110.209 238.157 108.042 237.181 107.616 235.235C107.37 234.111 107.759 233.012 108.135 231.949C108.548 230.784 108.904 229.778 108.389 228.95C108.155 228.573 107.745 228.287 107.338 228.034C106.807 227.705 106.237 227.401 105.686 227.107C104.733 226.599 103.748 226.073 102.873 225.376C101.152 224.007 100.282 222.18 100.545 220.49C100.773 219.029 101.764 217.91 102.723 216.828C103.706 215.719 104.635 214.67 104.613 213.387C104.584 211.642 102.793 210.389 101.213 209.284L100.967 209.111C99.0392 207.757 97.1877 205.406 98.3134 203.239C98.7063 202.483 99.3621 201.997 99.9963 201.527C100.424 201.24 100.813 200.9 101.157 200.517C102.316 199.087 101.724 196.969 101.416 196.124C101.182 195.483 100.876 194.842 100.58 194.223C100.142 193.308 99.6899 192.362 99.4272 191.342L99.3841 191.175C98.751 188.718 98.7516 188.627 99.4207 186.27L99.5042 185.976L100.504 186.257L100.42 186.552C99.8143 188.685 99.8143 188.685 100.39 190.917L100.433 191.085C100.671 192.008 101.082 192.868 101.517 193.778C101.824 194.419 102.141 195.083 102.392 195.771C103.171 197.904 103.015 199.871 101.965 201.167C101.568 201.619 101.114 202.019 100.616 202.358C100.051 202.775 99.5183 203.17 99.2356 203.714C98.3601 205.4 100.288 207.368 101.565 208.266L101.81 208.437C103.504 209.623 105.613 211.099 105.651 213.37C105.68 215.054 104.572 216.304 103.501 217.513C102.602 218.528 101.752 219.487 101.571 220.649C101.33 222.202 102.42 223.692 103.521 224.568C104.322 225.206 105.223 225.686 106.176 226.195C106.742 226.497 107.327 226.809 107.886 227.156C108.401 227.475 108.925 227.847 109.272 228.406C110.048 229.655 109.574 230.996 109.115 232.293C108.772 233.262 108.448 234.178 108.631 235.015C108.961 236.527 110.953 237.216 112.533 236.888C113.827 236.619 114.965 235.911 116.17 235.163C116.559 234.92 116.962 234.67 117.368 234.437C119.583 233.17 121.591 232.86 123.173 233.541C123.671 233.775 124.143 234.062 124.58 234.396C124.92 234.654 125.281 234.883 125.659 235.082C126.519 235.456 127.489 235.493 128.375 235.186C129.262 234.879 130 234.251 130.442 233.427C130.519 233.269 130.587 233.099 130.66 232.92C130.89 232.35 131.151 231.703 131.748 231.298C132.373 230.874 133.142 230.88 133.704 230.885L139.51 230.934L139.501 231.968L133.695 231.919C133.145 231.915 132.662 231.929 132.333 232.153C131.997 232.381 131.815 232.83 131.623 233.306C131.547 233.493 131.469 233.686 131.378 233.874C130.816 234.948 129.864 235.766 128.716 236.163C127.568 236.56 126.312 236.506 125.203 236.011C124.773 235.788 124.362 235.529 123.975 235.238C123.598 234.947 123.191 234.697 122.761 234.491C121.157 233.8 119.224 234.568 117.886 235.334C117.496 235.557 117.101 235.803 116.719 236.04C115.49 236.804 114.219 237.594 112.745 237.9C112.559 237.939 112.37 237.966 112.18 237.983Z" fill="url(#paint2_linear)"/>
</g>
<path d="M112.437 237.516C110.465 237.689 108.298 236.714 107.872 234.767C107.627 233.643 108.016 232.544 108.392 231.482C108.804 230.317 109.16 229.311 108.645 228.482C108.411 228.105 108.002 227.819 107.594 227.566C107.063 227.237 106.493 226.933 105.942 226.639C104.99 226.131 104.005 225.606 103.129 224.909C101.409 223.539 100.539 221.713 100.802 220.022C101.029 218.562 102.02 217.443 102.979 216.361C103.962 215.251 104.891 214.203 104.869 212.92C104.84 211.175 103.049 209.922 101.47 208.816L101.223 208.643C99.2956 207.289 97.444 204.938 98.5697 202.771C98.9627 202.015 99.6185 201.529 100.253 201.06C100.68 200.772 101.07 200.433 101.413 200.049C102.572 198.619 101.981 196.501 101.673 195.657C101.438 195.015 101.132 194.375 100.836 193.755C100.399 192.841 99.9462 191.895 99.6835 190.874L99.6404 190.707C99.0073 188.251 99.008 188.159 99.6771 185.802L99.7605 185.508L100.76 185.789L100.676 186.084C100.071 188.217 100.071 188.217 100.646 190.45L100.689 190.617C100.927 191.54 101.338 192.4 101.773 193.31C102.08 193.952 102.397 194.615 102.649 195.303C103.427 197.437 103.271 199.403 102.221 200.699C101.824 201.152 101.371 201.552 100.872 201.89C100.308 202.308 99.7747 202.703 99.4919 203.247C98.6164 204.932 100.544 206.901 101.822 207.798L102.067 207.97C103.761 209.155 105.869 210.631 105.908 212.902C105.936 214.586 104.829 215.836 103.758 217.045C102.858 218.06 102.009 219.019 101.828 220.181C101.586 221.734 102.676 223.224 103.778 224.101C104.579 224.738 105.479 225.219 106.432 225.727C106.998 226.029 107.583 226.341 108.143 226.688C108.658 227.007 109.182 227.38 109.528 227.938C110.305 229.187 109.83 230.529 109.371 231.825C109.028 232.795 108.704 233.71 108.887 234.547C109.218 236.06 111.209 236.748 112.79 236.42C114.083 236.152 115.221 235.444 116.426 234.695C116.816 234.453 117.219 234.202 117.625 233.97C119.84 232.702 121.847 232.393 123.429 233.074C123.928 233.308 124.399 233.594 124.836 233.929C125.176 234.187 125.537 234.416 125.915 234.614C126.775 234.988 127.745 235.025 128.632 234.719C129.518 234.412 130.256 233.784 130.699 232.959C130.775 232.801 130.843 232.631 130.916 232.452C131.147 231.882 131.408 231.236 132.004 230.831C132.629 230.406 133.398 230.413 133.96 230.417L139.766 230.466L139.757 231.501L133.952 231.452C133.401 231.447 132.919 231.462 132.589 231.685C132.253 231.913 132.072 232.363 131.879 232.838C131.804 233.025 131.725 233.219 131.635 233.407C131.073 234.48 130.12 235.299 128.973 235.696C127.825 236.093 126.568 236.038 125.459 235.544C125.029 235.32 124.618 235.062 124.232 234.77C123.854 234.479 123.447 234.229 123.017 234.023C121.413 233.332 119.481 234.101 118.142 234.867C117.752 235.09 117.358 235.335 116.976 235.572C115.747 236.337 114.476 237.127 113.001 237.433C112.815 237.471 112.626 237.499 112.437 237.516Z" fill="#F55F44"/>
<path opacity="0.2" d="M151.475 219.934C151.475 219.934 158.753 220.555 159.84 231.14" stroke="black" stroke-miterlimit="10"/>
<path opacity="0.2" d="M139.958 233.632C139.958 233.632 136.515 225.034 147.757 219.149" stroke="black" stroke-miterlimit="10"/>
<path opacity="0.2" d="M142.743 231.458C142.743 231.458 141.156 226.999 144.629 224.171" stroke="black" stroke-miterlimit="10"/>
<path opacity="0.2" d="M149.357 223.755C149.357 223.755 152.374 225.863 151.418 231.881" stroke="black" stroke-miterlimit="10"/>
<path opacity="0.2" d="M154.932 217.776C154.932 217.776 159.896 220.009 161.796 228.001" stroke="black" stroke-miterlimit="10"/>
<path opacity="0.2" d="M147.692 218.413C147.692 218.413 150.569 217.27 152.634 218.72" stroke="black" stroke-miterlimit="10"/>
<path opacity="0.2" d="M145.608 235.211C145.608 235.211 148.394 238.081 158.316 234.093" stroke="black" stroke-miterlimit="10"/>
<path opacity="0.2" d="M142.29 219.63C142.29 219.63 138.535 222.631 138.588 228.263" stroke="black" stroke-miterlimit="10"/>
<path opacity="0.2" d="M141.879 233.463C141.879 233.463 141.149 235.307 143.065 236.77" stroke="black" stroke-miterlimit="10"/>
<path opacity="0.2" d="M159.467 235.327C159.467 235.327 158.451 238.977 156.343 238.717" stroke="black" stroke-miterlimit="10"/>
<path opacity="0.2" d="M153.247 225.638C153.247 225.638 154.734 227.288 154.03 229.426" stroke="black" stroke-miterlimit="10"/>
<path opacity="0.2" d="M145.872 226.436C145.872 226.436 144.751 228.908 145.659 230.756" stroke="black" stroke-miterlimit="10"/>
<path opacity="0.2" d="M147.497 226.293C147.497 226.293 148.78 228.998 147.876 230.561" stroke="black" stroke-miterlimit="10"/>
</g>
</g>
<defs>
<linearGradient id="paint0_linear" x1="119.517" y1="154.949" x2="120.832" y2="152.3" gradientUnits="userSpaceOnUse">
<stop stop-color="white"/>
<stop offset="1"/>
</linearGradient>
<linearGradient id="paint1_linear" x1="151.282" y1="242.945" x2="148.847" y2="215.27" gradientUnits="userSpaceOnUse">
<stop stop-color="#808080" stop-opacity="0.25"/>
<stop offset="0.53514" stop-color="#808080" stop-opacity="0.12"/>
<stop offset="1" stop-color="#808080" stop-opacity="0.1"/>
</linearGradient>
<linearGradient id="paint2_linear" x1="51195.1" y1="55476.7" x2="49561.7" y2="36917.3" gradientUnits="userSpaceOnUse">
<stop stop-color="#808080" stop-opacity="0.25"/>
<stop offset="0.53514" stop-color="#808080" stop-opacity="0.12"/>
<stop offset="1" stop-color="#808080" stop-opacity="0.1"/>
</linearGradient>
<clipPath id="clip0">
<rect width="419" height="258" fill="white" transform="translate(-45)"/>
</clipPath>
<clipPath id="clip1">
<rect width="119" height="122" fill="white" transform="translate(45 121)"/>
</clipPath>
</defs>
</svg>
